<?xml version="1.0" encoding="utf-8"?>
<COLLADA xmlns="http://www.collada.org/2005/11/COLLADASchema" version="1.4.1">
<asset><created>2026-09-21T00:00:00Z</created><modified>2026-09-21T00:00:00Z</modified><unit name="meter" meter="1"/><up_axis>Z_UP</up_axis></asset>
<library_effects><effect id="gray"><profile_COMMON><technique sid="common"><lambert><diffuse><color>0.47 0.50 0.52 1</color></diffuse></lambert></technique></profile_COMMON></effect></library_effects>
<library_materials><material id="metal"><instance_effect url="#gray"/></material></library_materials>
<library_geometries><geometry id="part"><mesh>
<source id="positions"><float_array id="position-array" count="216">0 -0.045 -0.0075 0 -0.045 0.0075 0 -0.0449039264 -0.00847545161 0 -0.0449039264 0.00847545161 0 -0.04461939766 -0.00941341716 0 -0.04461939766 0.00941341716 0 -0.04415734806 -0.01027785117 0 -0.04415734806 0.01027785117 0 -0.04353553391 -0.01103553391 0 -0.04353553391 0.01103553391 0 -0.04277785117 -0.01165734806 0 -0.04277785117 0.01165734806 0 -0.04191341716 -0.01211939766 0 -0.04191341716 0.01211939766 0 -0.04097545161 -0.0124039264 0 -0.04097545161 0.0124039264 0 -0.04 -0.0125 0 -0.04 0.0125 0 0.04 -0.0125 0 0.04 0.0125 0 0.04097545161 -0.0124039264 0 0.04097545161 0.0124039264 0 0.04191341716 -0.01211939766 0 0.04191341716 0.01211939766 0 0.04277785117 -0.01165734806 0 0.04277785117 0.01165734806 0 0.04353553391 -0.01103553391 0 0.04353553391 0.01103553391 0 0.04415734806 -0.01027785117 0 0.04415734806 0.01027785117 0 0.04461939766 -0.00941341716 0 0.04461939766 0.00941341716 0 0.0449039264 -0.00847545161 0 0.0449039264 0.00847545161 0 0.045 -0.0075 0 0.045 0.0075 0.02505 -0.045 -0.0075 0.02505 -0.045 0.0075 0.02505 -0.0449039264 -0.00847545161 0.02505 -0.0449039264 0.00847545161 0.02505 -0.04461939766 -0.00941341716 0.02505 -0.04461939766 0.00941341716 0.02505 -0.04415734806 -0.01027785117 0.02505 -0.04415734806 0.01027785117 0.02505 -0.04353553391 -0.01103553391 0.02505 -0.04353553391 0.01103553391 0.02505 -0.04277785117 -0.01165734806 0.02505 -0.04277785117 0.01165734806 0.02505 -0.04191341716 -0.01211939766 0.02505 -0.04191341716 0.01211939766 0.02505 -0.04097545161 -0.0124039264 0.02505 -0.04097545161 0.0124039264 0.02505 -0.04 -0.0125 0.02505 -0.04 0.0125 0.02505 0.04 -0.0125 0.02505 0.04 0.0125 0.02505 0.04097545161 -0.0124039264 0.02505 0.04097545161 0.0124039264 0.02505 0.04191341716 -0.01211939766 0.02505 0.04191341716 0.01211939766 0.02505 0.04277785117 -0.01165734806 0.02505 0.04277785117 0.01165734806 0.02505 0.04353553391 -0.01103553391 0.02505 0.04353553391 0.01103553391 0.02505 0.04415734806 -0.01027785117 0.02505 0.04415734806 0.01027785117 0.02505 0.04461939766 -0.00941341716 0.02505 0.04461939766 0.00941341716 0.02505 0.0449039264 -0.00847545161 0.02505 0.0449039264 0.00847545161 0.02505 0.045 -0.0075 0.02505 0.045 0.0075</float_array><technique_common><accessor source="#position-array" count="72" stride="3"><param name="X" type="float"/><param name="Y" type="float"/><param name="Z" type="float"/></accessor></technique_common></source>
<vertices id="vertices"><input semantic="POSITION" source="#positions"/></vertices>
<triangles count="140" material="surface"><input semantic="VERTEX" source="#vertices" offset="0"/><p>11 7 9 8 6 10 25 27 29 26 24 28 16 19 18 17 19 16 18 19 35 34 18 35 17 16 1 0 1 16 17 1 15 3 15 1 34 20 18 34 32 20 30 20 32 30 22 20 0 16 2 16 14 2 12 2 14 12 4 2 12 10 6 12 6 4 19 21 35 35 21 33 31 33 21 31 21 23 5 7 13 11 13 7 3 13 15 5 13 3 31 23 29 25 29 23 22 28 24 30 28 22 45 43 47 46 42 44 65 63 61 64 60 62 54 55 52 52 55 53 71 55 54 71 54 70 37 52 53 52 37 36 51 37 53 37 51 39 54 56 70 56 68 70 68 56 66 56 58 66 38 52 36 38 50 52 50 38 48 38 40 48 42 46 48 40 42 48 71 57 55 69 57 71 57 69 67 59 57 67 49 43 41 43 49 47 51 49 39 39 49 41 65 59 67 59 65 61 60 64 58 58 64 66 0 2 38 0 38 36 1 0 36 1 36 37 2 4 40 2 40 38 3 1 37 3 37 39 4 6 42 4 42 40 5 3 39 5 39 41 6 8 44 6 44 42 7 5 41 7 41 43 8 10 46 8 46 44 9 7 43 9 43 45 10 12 48 10 48 46 11 9 45 11 45 47 12 14 50 12 50 48 13 11 47 13 47 49 14 16 52 14 52 50 15 13 49 15 49 51 16 18 54 16 54 52 17 15 51 17 51 53 18 20 56 18 56 54 19 17 53 19 53 55 20 22 58 20 58 56 21 19 55 21 55 57 22 24 60 22 60 58 23 21 57 23 57 59 24 26 62 24 62 60 25 23 59 25 59 61 26 28 64 26 64 62 27 25 61 27 61 63 28 30 66 28 66 64 29 27 63 29 63 65 30 32 68 30 68 66 31 29 65 31 65 67 32 34 70 32 70 68 33 31 67 33 67 69 34 35 71 34 71 70 35 33 69 35 69 71</p></triangles>
</mesh></geometry></library_geometries>
<library_visual_scenes><visual_scene id="Scene"><node id="part-node"><instance_geometry url="#part"><bind_material><technique_common><instance_material symbol="surface" target="#metal"/></technique_common></bind_material></instance_geometry></node></visual_scene></library_visual_scenes>
<scene><instance_visual_scene url="#Scene"/></scene></COLLADA>
