<?xml version="1.0" encoding="utf-8"?>
<COLLADA xmlns="http://www.collada.org/2005/11/COLLADASchema" version="1.4.1">
<asset><created>2026-09-21T00:00:00Z</created><modified>2026-09-21T00:00:00Z</modified><unit name="meter" meter="1"/><up_axis>Z_UP</up_axis></asset>
<library_effects><effect id="gray"><profile_COMMON><technique sid="common"><lambert><diffuse><color>0.13 0.15 0.17 1</color></diffuse></lambert></technique></profile_COMMON></effect></library_effects>
<library_materials><material id="metal"><instance_effect url="#gray"/></material></library_materials>
<library_geometries><geometry id="part"><mesh>
<source id="positions"><float_array id="position-array" count="768">-0.007 0.02925 -0.0005 -0.00696629309 0.02856388002 -0.0005 -0.00696629309 0.02993611998 -0.0005 -0.00686549696 0.02788436775 -0.0005 -0.00686549696 0.03061563225 -0.0005 -0.00669858235 0.02721800726 -0.0005 -0.00669858235 0.03128199274 -0.0005 -0.00646715673 0.02657121597 -0.0005 -0.00646715673 0.03192878403 -0.0005 -0.00617344885 0.02595022284 -0.0005 -0.00617344885 0.03254977716 -0.0005 -0.00582028729 0.02536100837 -0.0005 -0.00582028729 0.03313899163 -0.0005 -0.00541107317 0.02480924701 -0.0005 -0.00541107317 0.03369075299 -0.0005 -0.00494974747 0.02430025253 -0.0005 -0.00494974747 0.03419974747 -0.0005 -0.00444075299 0.02383892683 -0.0005 -0.00444075299 0.03466107317 -0.0005 -0.00388899163 0.02342971271 -0.0005 -0.00388899163 0.03507028729 -0.0005 -0.00329977716 0.02307655115 -0.0005 -0.00329977716 0.03542344885 -0.0005 -0.00267878403 0.02278284327 -0.0005 -0.00267878403 0.03571715673 -0.0005 -0.00203199274 0.02255141765 -0.0005 -0.00203199274 0.03594858235 -0.0005 -0.0017 0.02925 -0.0005 -0.00169181404 0.02908337086 -0.0005 -0.00169181404 0.02941662914 -0.0005 -0.00166733498 0.02891834645 -0.0005 -0.00166733498 0.02958165355 -0.0005 -0.00162679857 0.02875651605 -0.0005 -0.00162679857 0.02974348395 -0.0005 -0.00157059521 0.02859943816 -0.0005 -0.00157059521 0.02990056184 -0.0005 -0.00149926615 0.02844862555 -0.0005 -0.00149926615 0.03005137445 -0.0005 -0.00141349834 0.0283055306 -0.0005 -0.00141349834 0.0301944694 -0.0005 -0.00136563225 0.02238450304 -0.0005 -0.00136563225 0.03611549696 -0.0005 -0.00131411777 0.02817153142 -0.0005 -0.00131411777 0.03032846858 -0.0005 -0.00120208153 0.02804791847 -0.0005 -0.00120208153 0.03045208153 -0.0005 -0.00107846858 0.02793588223 -0.0005 -0.00107846858 0.03056411777 -0.0005 -0.0009444694 0.02783650166 -0.0005 -0.0009444694 0.03066349834 -0.0005 -0.00080137445 0.02775073385 -0.0005 -0.00080137445 0.03074926615 -0.0005 -0.00068611998 0.02228370691 -0.0005 -0.00068611998 0.03621629309 -0.0005 -0.00065056184 0.02767940479 -0.0005 -0.00065056184 0.03082059521 -0.0005 -0.00049348395 0.02762320143 -0.0005 -0.00049348395 0.03087679857 -0.0005 -0.00033165355 0.02758266502 -0.0005 -0.00033165355 0.03091733498 -0.0005 -0.00016662914 0.02755818596 -0.0005 -0.00016662914 0.03094181404 -0.0005 -0 0.02225 -0.0005 -0 0.02755 -0.0005 0 0.03095 -0.0005 0 0.03625 -0.0005 0.00016662914 0.02755818596 -0.0005 0.00016662914 0.03094181404 -0.0005 0.00033165355 0.02758266502 -0.0005 0.00033165355 0.03091733498 -0.0005 0.00049348395 0.02762320143 -0.0005 0.00049348395 0.03087679857 -0.0005 0.00065056184 0.02767940479 -0.0005 0.00065056184 0.03082059521 -0.0005 0.00068611998 0.02228370691 -0.0005 0.00068611998 0.03621629309 -0.0005 0.00080137445 0.02775073385 -0.0005 0.00080137445 0.03074926615 -0.0005 0.0009444694 0.02783650166 -0.0005 0.0009444694 0.03066349834 -0.0005 0.00107846858 0.02793588223 -0.0005 0.00107846858 0.03056411777 -0.0005 0.00120208153 0.02804791847 -0.0005 0.00120208153 0.03045208153 -0.0005 0.00131411777 0.02817153142 -0.0005 0.00131411777 0.03032846858 -0.0005 0.00136563225 0.02238450304 -0.0005 0.00136563225 0.03611549696 -0.0005 0.00141349834 0.0283055306 -0.0005 0.00141349834 0.0301944694 -0.0005 0.00149926615 0.02844862555 -0.0005 0.00149926615 0.03005137445 -0.0005 0.00157059521 0.02859943816 -0.0005 0.00157059521 0.02990056184 -0.0005 0.00162679857 0.02875651605 -0.0005 0.00162679857 0.02974348395 -0.0005 0.00166733498 0.02891834645 -0.0005 0.00166733498 0.02958165355 -0.0005 0.00169181404 0.02908337086 -0.0005 0.00169181404 0.02941662914 -0.0005 0.0017 0.02925 -0.0005 0.00203199274 0.02255141765 -0.0005 0.00203199274 0.03594858235 -0.0005 0.00267878403 0.02278284327 -0.0005 0.00267878403 0.03571715673 -0.0005 0.00329977716 0.02307655115 -0.0005 0.00329977716 0.03542344885 -0.0005 0.00388899163 0.02342971271 -0.0005 0.00388899163 0.03507028729 -0.0005 0.00444075299 0.02383892683 -0.0005 0.00444075299 0.03466107317 -0.0005 0.00494974747 0.02430025253 -0.0005 0.00494974747 0.03419974747 -0.0005 0.00541107317 0.02480924701 -0.0005 0.00541107317 0.03369075299 -0.0005 0.00582028729 0.02536100837 -0.0005 0.00582028729 0.03313899163 -0.0005 0.00617344885 0.02595022284 -0.0005 0.00617344885 0.03254977716 -0.0005 0.00646715673 0.02657121597 -0.0005 0.00646715673 0.03192878403 -0.0005 0.00669858235 0.02721800726 -0.0005 0.00669858235 0.03128199274 -0.0005 0.00686549696 0.02788436775 -0.0005 0.00686549696 0.03061563225 -0.0005 0.00696629309 0.02856388002 -0.0005 0.00696629309 0.02993611998 -0.0005 0.007 0.02925 -0.0005 -0.007 0.02925 0.0025 -0.00696629309 0.02856388002 0.0025 -0.00696629309 0.02993611998 0.0025 -0.00686549696 0.02788436775 0.0025 -0.00686549696 0.03061563225 0.0025 -0.00669858235 0.02721800726 0.0025 -0.00669858235 0.03128199274 0.0025 -0.00646715673 0.02657121597 0.0025 -0.00646715673 0.03192878403 0.0025 -0.00617344885 0.02595022284 0.0025 -0.00617344885 0.03254977716 0.0025 -0.00582028729 0.02536100837 0.0025 -0.00582028729 0.03313899163 0.0025 -0.00541107317 0.02480924701 0.0025 -0.00541107317 0.03369075299 0.0025 -0.00494974747 0.02430025253 0.0025 -0.00494974747 0.03419974747 0.0025 -0.00444075299 0.02383892683 0.0025 -0.00444075299 0.03466107317 0.0025 -0.00388899163 0.02342971271 0.0025 -0.00388899163 0.03507028729 0.0025 -0.00329977716 0.02307655115 0.0025 -0.00329977716 0.03542344885 0.0025 -0.00267878403 0.02278284327 0.0025 -0.00267878403 0.03571715673 0.0025 -0.00203199274 0.02255141765 0.0025 -0.00203199274 0.03594858235 0.0025 -0.0017 0.02925 0.0025 -0.00169181404 0.02908337086 0.0025 -0.00169181404 0.02941662914 0.0025 -0.00166733498 0.02891834645 0.0025 -0.00166733498 0.02958165355 0.0025 -0.00162679857 0.02875651605 0.0025 -0.00162679857 0.02974348395 0.0025 -0.00157059521 0.02859943816 0.0025 -0.00157059521 0.02990056184 0.0025 -0.00149926615 0.02844862555 0.0025 -0.00149926615 0.03005137445 0.0025 -0.00141349834 0.0283055306 0.0025 -0.00141349834 0.0301944694 0.0025 -0.00136563225 0.02238450304 0.0025 -0.00136563225 0.03611549696 0.0025 -0.00131411777 0.02817153142 0.0025 -0.00131411777 0.03032846858 0.0025 -0.00120208153 0.02804791847 0.0025 -0.00120208153 0.03045208153 0.0025 -0.00107846858 0.02793588223 0.0025 -0.00107846858 0.03056411777 0.0025 -0.0009444694 0.02783650166 0.0025 -0.0009444694 0.03066349834 0.0025 -0.00080137445 0.02775073385 0.0025 -0.00080137445 0.03074926615 0.0025 -0.00068611998 0.02228370691 0.0025 -0.00068611998 0.03621629309 0.0025 -0.00065056184 0.02767940479 0.0025 -0.00065056184 0.03082059521 0.0025 -0.00049348395 0.02762320143 0.0025 -0.00049348395 0.03087679857 0.0025 -0.00033165355 0.02758266502 0.0025 -0.00033165355 0.03091733498 0.0025 -0.00016662914 0.02755818596 0.0025 -0.00016662914 0.03094181404 0.0025 -0 0.02225 0.0025 -0 0.02755 0.0025 0 0.03095 0.0025 0 0.03625 0.0025 0.00016662914 0.02755818596 0.0025 0.00016662914 0.03094181404 0.0025 0.00033165355 0.02758266502 0.0025 0.00033165355 0.03091733498 0.0025 0.00049348395 0.02762320143 0.0025 0.00049348395 0.03087679857 0.0025 0.00065056184 0.02767940479 0.0025 0.00065056184 0.03082059521 0.0025 0.00068611998 0.02228370691 0.0025 0.00068611998 0.03621629309 0.0025 0.00080137445 0.02775073385 0.0025 0.00080137445 0.03074926615 0.0025 0.0009444694 0.02783650166 0.0025 0.0009444694 0.03066349834 0.0025 0.00107846858 0.02793588223 0.0025 0.00107846858 0.03056411777 0.0025 0.00120208153 0.02804791847 0.0025 0.00120208153 0.03045208153 0.0025 0.00131411777 0.02817153142 0.0025 0.00131411777 0.03032846858 0.0025 0.00136563225 0.02238450304 0.0025 0.00136563225 0.03611549696 0.0025 0.00141349834 0.0283055306 0.0025 0.00141349834 0.0301944694 0.0025 0.00149926615 0.02844862555 0.0025 0.00149926615 0.03005137445 0.0025 0.00157059521 0.02859943816 0.0025 0.00157059521 0.02990056184 0.0025 0.00162679857 0.02875651605 0.0025 0.00162679857 0.02974348395 0.0025 0.00166733498 0.02891834645 0.0025 0.00166733498 0.02958165355 0.0025 0.00169181404 0.02908337086 0.0025 0.00169181404 0.02941662914 0.0025 0.0017 0.02925 0.0025 0.00203199274 0.02255141765 0.0025 0.00203199274 0.03594858235 0.0025 0.00267878403 0.02278284327 0.0025 0.00267878403 0.03571715673 0.0025 0.00329977716 0.02307655115 0.0025 0.00329977716 0.03542344885 0.0025 0.00388899163 0.02342971271 0.0025 0.00388899163 0.03507028729 0.0025 0.00444075299 0.02383892683 0.0025 0.00444075299 0.03466107317 0.0025 0.00494974747 0.02430025253 0.0025 0.00494974747 0.03419974747 0.0025 0.00541107317 0.02480924701 0.0025 0.00541107317 0.03369075299 0.0025 0.00582028729 0.02536100837 0.0025 0.00582028729 0.03313899163 0.0025 0.00617344885 0.02595022284 0.0025 0.00617344885 0.03254977716 0.0025 0.00646715673 0.02657121597 0.0025 0.00646715673 0.03192878403 0.0025 0.00669858235 0.02721800726 0.0025 0.00669858235 0.03128199274 0.0025 0.00686549696 0.02788436775 0.0025 0.00686549696 0.03061563225 0.0025 0.00696629309 0.02856388002 0.0025 0.00696629309 0.02993611998 0.0025 0.007 0.02925 0.0025</float_array><technique_common><accessor source="#position-array" count="256" stride="3"><param name="X" type="float"/><param name="Y" type="float"/><param name="Z" type="float"/></accessor></technique_common></source>
<vertices id="vertices"><input semantic="POSITION" source="#positions"/></vertices>
<triangles count="512" material="surface"><input semantic="VERTEX" source="#vertices" offset="0"/><p>19 48 21 46 48 17 19 17 48 115 113 88 115 88 117 90 117 88 65 61 53 65 64 61 87 102 69 123 121 96 127 99 126 127 100 99 111 82 113 111 109 82 53 61 41 65 75 67 65 67 64 75 87 67 87 69 67 104 106 73 77 73 106 104 73 102 4 6 31 6 33 31 8 35 6 6 35 33 8 10 35 119 92 121 119 117 92 90 92 117 125 123 98 123 96 98 127 125 98 127 98 100 126 99 124 113 84 88 113 82 84 107 78 109 107 105 78 102 71 69 102 73 71 2 4 29 4 31 29 0 2 29 121 94 96 121 92 94 116 118 89 118 91 89 116 89 114 109 80 82 109 78 80 103 72 105 61 59 41 41 59 26 20 49 18 20 22 49 51 49 22 0 28 1 1 28 3 10 37 35 99 97 124 124 97 122 112 114 83 112 83 110 110 83 81 105 76 78 105 72 76 103 101 72 74 66 86 62 66 74 24 26 55 24 55 22 51 22 55 16 18 45 16 45 14 14 45 43 108 79 106 77 106 79 108 110 79 110 81 79 0 29 27 0 27 28 3 30 5 3 28 30 12 14 39 14 43 39 12 39 10 10 39 37 120 122 93 120 93 118 118 93 91 114 89 85 114 85 83 72 101 70 62 52 60 52 40 60 26 59 57 26 57 55 18 49 47 18 47 45 7 5 34 7 34 9 122 97 95 122 95 93 86 66 68 86 68 101 101 68 70 62 63 66 62 60 63 40 25 58 40 58 60 5 30 32 5 32 34 11 9 38 11 38 13 23 54 25 23 21 54 9 34 36 9 36 38 15 13 44 15 44 17 46 17 44 25 56 58 25 54 56 13 38 42 13 42 44 21 48 50 21 50 54 149 176 147 145 176 174 176 145 147 216 241 243 245 216 243 216 245 218 181 189 193 189 192 193 197 230 215 224 249 251 254 227 255 227 228 255 241 210 239 210 237 239 169 189 181 195 203 193 192 195 193 195 215 203 195 197 215 201 234 232 234 201 205 230 201 232 159 134 132 159 161 134 134 163 136 161 163 134 163 138 136 249 220 247 220 245 247 245 220 218 226 251 253 226 224 251 226 253 255 228 226 255 252 227 254 216 212 241 212 210 241 237 206 235 206 233 235 197 199 230 199 201 230 157 132 130 157 159 132 157 130 128 224 222 249 222 220 249 217 246 244 217 219 246 242 217 244 210 208 237 208 206 237 233 200 231 169 187 189 154 187 169 146 177 148 177 150 148 150 177 179 129 156 128 131 156 129 163 165 138 252 225 227 250 225 252 211 242 240 238 211 240 209 211 238 206 204 233 204 200 233 200 229 231 214 194 202 202 194 190 183 154 152 150 183 152 183 150 179 173 146 144 142 173 144 171 173 142 234 207 236 207 234 205 207 238 236 207 209 238 155 157 128 156 155 128 133 158 131 158 156 131 167 142 140 167 171 142 138 167 140 165 167 138 221 250 248 246 221 248 219 221 246 213 217 242 211 213 242 198 229 200 188 180 190 188 168 180 185 187 154 183 185 154 175 177 146 173 175 146 162 133 135 137 162 135 223 225 250 221 223 250 196 194 214 229 196 214 198 196 229 194 191 190 191 188 190 186 153 168 188 186 168 160 158 133 162 160 133 166 137 139 141 166 139 153 182 151 182 149 151 164 162 137 166 164 137 172 141 143 145 172 143 172 145 174 186 184 153 184 182 153 170 166 141 172 170 141 178 176 149 182 178 149 0 1 129 0 129 128 1 3 131 1 131 129 2 0 128 2 128 130 3 5 133 3 133 131 4 2 130 4 130 132 5 7 135 5 135 133 6 4 132 6 132 134 7 9 137 7 137 135 8 6 134 8 134 136 9 11 139 9 139 137 10 8 136 10 136 138 11 13 141 11 141 139 12 10 138 12 138 140 13 15 143 13 143 141 14 12 140 14 140 142 15 17 145 15 145 143 16 14 142 16 142 144 17 19 147 17 147 145 18 16 144 18 144 146 19 21 149 19 149 147 20 18 146 20 146 148 21 23 151 21 151 149 22 20 148 22 148 150 23 25 153 23 153 151 24 22 150 24 150 152 25 40 168 25 168 153 26 24 152 26 152 154 27 29 157 27 157 155 28 27 155 28 155 156 29 31 159 29 159 157 30 28 156 30 156 158 31 33 161 31 161 159 32 30 158 32 158 160 33 35 163 33 163 161 34 32 160 34 160 162 35 37 165 35 165 163 36 34 162 36 162 164 37 39 167 37 167 165 38 36 164 38 164 166 39 43 171 39 171 167 40 52 180 40 180 168 41 26 154 41 154 169 42 38 166 42 166 170 43 45 173 43 173 171 44 42 170 44 170 172 45 47 175 45 175 173 46 44 172 46 172 174 47 49 177 47 177 175 48 46 174 48 174 176 49 51 179 49 179 177 50 48 176 50 176 178 51 55 183 51 183 179 52 62 190 52 190 180 53 41 169 53 169 181 54 50 178 54 178 182 55 57 185 55 185 183 56 54 182 56 182 184 57 59 187 57 187 185 58 56 184 58 184 186 59 61 189 59 189 187 60 58 186 60 186 188 61 64 192 61 192 189 62 74 202 62 202 190 63 60 188 63 188 191 64 67 195 64 195 192 65 53 181 65 181 193 66 63 191 66 191 194 67 69 197 67 197 195 68 66 194 68 194 196 69 71 199 69 199 197 70 68 196 70 196 198 71 73 201 71 201 199 72 70 198 72 198 200 73 77 205 73 205 201 74 86 214 74 214 202 75 65 193 75 193 203 76 72 200 76 200 204 77 79 207 77 207 205 78 76 204 78 204 206 79 81 209 79 209 207 80 78 206 80 206 208 81 83 211 81 211 209 82 80 208 82 208 210 83 85 213 83 213 211 84 82 210 84 210 212 85 89 217 85 217 213 86 101 229 86 229 214 87 75 203 87 203 215 88 84 212 88 212 216 89 91 219 89 219 217 90 88 216 90 216 218 91 93 221 91 221 219 92 90 218 92 218 220 93 95 223 93 223 221 94 92 220 94 220 222 95 97 225 95 225 223 96 94 222 96 222 224 97 99 227 97 227 225 98 96 224 98 224 226 99 100 228 99 228 227 100 98 226 100 226 228 101 103 231 101 231 229 102 87 215 102 215 230 103 105 233 103 233 231 104 102 230 104 230 232 105 107 235 105 235 233 106 104 232 106 232 234 107 109 237 107 237 235 108 106 234 108 234 236 109 111 239 109 239 237 110 108 236 110 236 238 111 113 241 111 241 239 112 110 238 112 238 240 113 115 243 113 243 241 114 112 240 114 240 242 115 117 245 115 245 243 116 114 242 116 242 244 117 119 247 117 247 245 118 116 244 118 244 246 119 121 249 119 249 247 120 118 246 120 246 248 121 123 251 121 251 249 122 120 248 122 248 250 123 125 253 123 253 251 124 122 250 124 250 252 125 127 255 125 255 253 126 124 252 126 252 254 127 126 254 127 254 255</p></triangles>
</mesh></geometry></library_geometries>
<library_visual_scenes><visual_scene id="Scene"><node id="part-node"><instance_geometry url="#part"><bind_material><technique_common><instance_material symbol="surface" target="#metal"/></technique_common></bind_material></instance_geometry></node></visual_scene></library_visual_scenes>
<scene><instance_visual_scene url="#Scene"/></scene></COLLADA>
