<?xml version="1.0" encoding="utf-8"?>
<COLLADA xmlns="http://www.collada.org/2005/11/COLLADASchema" version="1.4.1">
<asset><created>2026-09-21T00:00:00Z</created><modified>2026-09-21T00:00:00Z</modified><unit name="meter" meter="1"/><up_axis>Z_UP</up_axis></asset>
<library_effects><effect id="gray"><profile_COMMON><technique sid="common"><lambert><diffuse><color>0.47 0.50 0.52 1</color></diffuse></lambert></technique></profile_COMMON></effect></library_effects>
<library_materials><material id="metal"><instance_effect url="#gray"/></material></library_materials>
<library_geometries><geometry id="part"><mesh>
<source id="positions"><float_array id="position-array" count="2502">0.0325 0 -0.047 0.0325 0.003200970609 -0.047 0.0325 0.00646465194 -0.047 0.0325 0.009858767217 -0.047 0.0325 0.01346194078 -0.047 0.0325 0.01737161192 -0.047 0.0325 0.02171580573 -0.047 0.0325 0.0266720607 -0.047 0.0325 0.0325 -0.047 0.0266720607 0.0325 -0.047 0.02171580573 0.0325 -0.047 0.01737161192 0.0325 -0.047 0.01346194078 0.0325 -0.047 0.009858767217 0.0325 -0.047 0.00646465194 0.0325 -0.047 0.003200970609 0.0325 -0.047 1.990051049e-18 0.0325 -0.047 -0.003200970609 0.0325 -0.047 -0.00646465194 0.0325 -0.047 -0.009858767217 0.0325 -0.047 -0.01346194078 0.0325 -0.047 -0.01737161192 0.0325 -0.047 -0.02171580573 0.0325 -0.047 -0.0266720607 0.0325 -0.047 -0.0325 0.0325 -0.047 -0.0325 0.0266720607 -0.047 -0.0325 0.02171580573 -0.047 -0.0325 0.01737161192 -0.047 -0.0325 0.01346194078 -0.047 -0.0325 0.009858767217 -0.047 -0.0325 0.00646465194 -0.047 -0.0325 0.003200970609 -0.047 -0.0325 3.980102097e-18 -0.047 -0.0325 -0.003200970609 -0.047 -0.0325 -0.00646465194 -0.047 -0.0325 -0.009858767217 -0.047 -0.0325 -0.01346194078 -0.047 -0.0325 -0.01737161192 -0.047 -0.0325 -0.02171580573 -0.047 -0.0325 -0.0266720607 -0.047 -0.0325 -0.0325 -0.047 -0.0266720607 -0.0325 -0.047 -0.02171580573 -0.0325 -0.047 -0.01737161192 -0.0325 -0.047 -0.01346194078 -0.0325 -0.047 -0.009858767217 -0.0325 -0.047 -0.00646465194 -0.0325 -0.047 -0.003200970609 -0.0325 -0.047 -5.970153146e-18 -0.0325 -0.047 0.003200970609 -0.0325 -0.047 0.00646465194 -0.0325 -0.047 0.009858767217 -0.0325 -0.047 0.01346194078 -0.0325 -0.047 0.01737161192 -0.0325 -0.047 0.02171580573 -0.0325 -0.047 0.0266720607 -0.0325 -0.047 0.0325 -0.0325 -0.047 0.0325 -0.0266720607 -0.047 0.0325 -0.02171580573 -0.047 0.0325 -0.01737161192 -0.047 0.0325 -0.01346194078 -0.047 0.0325 -0.009858767217 -0.047 0.0325 -0.00646465194 -0.047 0.0325 -0.003200970609 -0.047 0.0325 0 -0.0075 0.0325 0.003200970609 -0.0075 0.0325 0.00646465194 -0.0075 0.0325 0.009858767217 -0.0075 0.0325 0.01346194078 -0.0075 0.0325 0.01737161192 -0.0075 0.0325 0.02171580573 -0.0075 0.0325 0.0266720607 -0.0075 0.0325 0.0325 -0.0075 0.0266720607 0.0325 -0.0075 0.02171580573 0.0325 -0.0075 0.01737161192 0.0325 -0.0075 0.01346194078 0.0325 -0.0075 0.009858767217 0.0325 -0.0075 0.00646465194 0.0325 -0.0075 0.003200970609 0.0325 -0.0075 1.990051049e-18 0.0325 -0.0075 -0.003200970609 0.0325 -0.0075 -0.00646465194 0.0325 -0.0075 -0.009858767217 0.0325 -0.0075 -0.01346194078 0.0325 -0.0075 -0.01737161192 0.0325 -0.0075 -0.02171580573 0.0325 -0.0075 -0.0266720607 0.0325 -0.0075 -0.0325 0.0325 -0.0075 -0.0325 0.0266720607 -0.0075 -0.0325 0.02171580573 -0.0075 -0.0325 0.01737161192 -0.0075 -0.0325 0.01346194078 -0.0075 -0.0325 0.009858767217 -0.0075 -0.0325 0.00646465194 -0.0075 -0.0325 0.003200970609 -0.0075 -0.0325 3.980102097e-18 -0.0075 -0.0325 -0.003200970609 -0.0075 -0.0325 -0.00646465194 -0.0075 -0.0325 -0.009858767217 -0.0075 -0.0325 -0.01346194078 -0.0075 -0.0325 -0.01737161192 -0.0075 -0.0325 -0.02171580573 -0.0075 -0.0325 -0.0266720607 -0.0075 -0.0325 -0.0325 -0.0075 -0.0266720607 -0.0325 -0.0075 -0.02171580573 -0.0325 -0.0075 -0.01737161192 -0.0325 -0.0075 -0.01346194078 -0.0325 -0.0075 -0.009858767217 -0.0325 -0.0075 -0.00646465194 -0.0325 -0.0075 -0.003200970609 -0.0325 -0.0075 -5.970153146e-18 -0.0325 -0.0075 0.003200970609 -0.0325 -0.0075 0.00646465194 -0.0325 -0.0075 0.009858767217 -0.0325 -0.0075 0.01346194078 -0.0325 -0.0075 0.01737161192 -0.0325 -0.0075 0.02171580573 -0.0325 -0.0075 0.0266720607 -0.0325 -0.0075 0.0325 -0.0325 -0.0075 0.0325 -0.0266720607 -0.0075 0.0325 -0.02171580573 -0.0075 0.0325 -0.01737161192 -0.0075 0.0325 -0.01346194078 -0.0075 0.0325 -0.009858767217 -0.0075 0.0325 -0.00646465194 -0.0075 0.0325 -0.003200970609 -0.0075 0.022 0 -0.0075 0.02189406399 0.002156377087 -0.0075 0.02157727617 0.004291987084 -0.0075 0.02105268739 0.0063862629 -0.0075 0.02032534972 0.008419035512 -0.0075 0.01940226782 0.01037072821 -0.0075 0.01829233147 0.01222254513 -0.0075 0.01700622997 0.01395665225 -0.0075 0.01555634919 0.01555634919 -0.0075 0.01395665225 0.01700622997 -0.0075 0.01222254513 0.01829233147 -0.0075 0.01037072821 0.01940226782 -0.0075 0.008419035512 0.02032534972 -0.0075 0.0063862629 0.02105268739 -0.0075 0.004291987084 0.02157727617 -0.0075 0.002156377087 0.02189406399 -0.0075 1.347111479e-18 0.022 -0.0075 -0.002156377087 0.02189406399 -0.0075 -0.004291987084 0.02157727617 -0.0075 -0.0063862629 0.02105268739 -0.0075 -0.008419035512 0.02032534972 -0.0075 -0.01037072821 0.01940226782 -0.0075 -0.01222254513 0.01829233147 -0.0075 -0.01395665225 0.01700622997 -0.0075 -0.01555634919 0.01555634919 -0.0075 -0.01700622997 0.01395665225 -0.0075 -0.01829233147 0.01222254513 -0.0075 -0.01940226782 0.01037072821 -0.0075 -0.02032534972 0.008419035512 -0.0075 -0.02105268739 0.0063862629 -0.0075 -0.02157727617 0.004291987084 -0.0075 -0.02189406399 0.002156377087 -0.0075 -0.022 2.694222958e-18 -0.0075 -0.02189406399 -0.002156377087 -0.0075 -0.02157727617 -0.004291987084 -0.0075 -0.02105268739 -0.0063862629 -0.0075 -0.02032534972 -0.008419035512 -0.0075 -0.01940226782 -0.01037072821 -0.0075 -0.01829233147 -0.01222254513 -0.0075 -0.01700622997 -0.01395665225 -0.0075 -0.01555634919 -0.01555634919 -0.0075 -0.01395665225 -0.01700622997 -0.0075 -0.01222254513 -0.01829233147 -0.0075 -0.01037072821 -0.01940226782 -0.0075 -0.008419035512 -0.02032534972 -0.0075 -0.0063862629 -0.02105268739 -0.0075 -0.004291987084 -0.02157727617 -0.0075 -0.002156377087 -0.02189406399 -0.0075 -4.041334437e-18 -0.022 -0.0075 0.002156377087 -0.02189406399 -0.0075 0.004291987084 -0.02157727617 -0.0075 0.0063862629 -0.02105268739 -0.0075 0.008419035512 -0.02032534972 -0.0075 0.01037072821 -0.01940226782 -0.0075 0.01222254513 -0.01829233147 -0.0075 0.01395665225 -0.01700622997 -0.0075 0.01555634919 -0.01555634919 -0.0075 0.01700622997 -0.01395665225 -0.0075 0.01829233147 -0.01222254513 -0.0075 0.01940226782 -0.01037072821 -0.0075 0.02032534972 -0.008419035512 -0.0075 0.02105268739 -0.0063862629 -0.0075 0.02157727617 -0.004291987084 -0.0075 0.02189406399 -0.002156377087 -0.0075 0.02166577057 0 -0.003940212358 0.02156144396 0.002123616874 -0.003940212358 0.02124946886 0.004226782157 -0.003940212358 0.02073284976 0.006289241216 -0.003940212358 0.02001656198 0.008291131445 -0.003940212358 0.01910750377 0.01021317355 -0.003940212358 0.01801442985 0.0120368572 -0.003940212358 0.01674786713 0.01374461934 -0.003940212358 0.01532001329 0.01532001329 -0.003940212358 0.01374461934 0.01674786713 -0.003940212358 0.0120368572 0.01801442985 -0.003940212358 0.01021317355 0.01910750377 -0.003940212358 0.008291131445 0.02001656198 -0.003940212358 0.006289241216 0.02073284976 -0.003940212358 0.004226782157 0.02124946886 -0.003940212358 0.002123616874 0.02156144396 -0.003940212358 1.326645829e-18 0.02166577057 -0.003940212358 -0.002123616874 0.02156144396 -0.003940212358 -0.004226782157 0.02124946886 -0.003940212358 -0.006289241216 0.02073284976 -0.003940212358 -0.008291131445 0.02001656198 -0.003940212358 -0.01021317355 0.01910750377 -0.003940212358 -0.0120368572 0.01801442985 -0.003940212358 -0.01374461934 0.01674786713 -0.003940212358 -0.01532001329 0.01532001329 -0.003940212358 -0.01674786713 0.01374461934 -0.003940212358 -0.01801442985 0.0120368572 -0.003940212358 -0.01910750377 0.01021317355 -0.003940212358 -0.02001656198 0.008291131445 -0.003940212358 -0.02073284976 0.006289241216 -0.003940212358 -0.02124946886 0.004226782157 -0.003940212358 -0.02156144396 0.002123616874 -0.003940212358 -0.02166577057 2.653291658e-18 -0.003940212358 -0.02156144396 -0.002123616874 -0.003940212358 -0.02124946886 -0.004226782157 -0.003940212358 -0.02073284976 -0.006289241216 -0.003940212358 -0.02001656198 -0.008291131445 -0.003940212358 -0.01910750377 -0.01021317355 -0.003940212358 -0.01801442985 -0.0120368572 -0.003940212358 -0.01674786713 -0.01374461934 -0.003940212358 -0.01532001329 -0.01532001329 -0.003940212358 -0.01374461934 -0.01674786713 -0.003940212358 -0.0120368572 -0.01801442985 -0.003940212358 -0.01021317355 -0.01910750377 -0.003940212358 -0.008291131445 -0.02001656198 -0.003940212358 -0.006289241216 -0.02073284976 -0.003940212358 -0.004226782157 -0.02124946886 -0.003940212358 -0.002123616874 -0.02156144396 -0.003940212358 -3.979937486e-18 -0.02166577057 -0.003940212358 0.002123616874 -0.02156144396 -0.003940212358 0.004226782157 -0.02124946886 -0.003940212358 0.006289241216 -0.02073284976 -0.003940212358 0.008291131445 -0.02001656198 -0.003940212358 0.01021317355 -0.01910750377 -0.003940212358 0.0120368572 -0.01801442985 -0.003940212358 0.01374461934 -0.01674786713 -0.003940212358 0.01532001329 -0.01532001329 -0.003940212358 0.01674786713 -0.01374461934 -0.003940212358 0.01801442985 -0.0120368572 -0.003940212358 0.01910750377 -0.01021317355 -0.003940212358 0.02001656198 -0.008291131445 -0.003940212358 0.02073284976 -0.006289241216 -0.003940212358 0.02124946886 -0.004226782157 -0.003940212358 0.02156144396 -0.002123616874 -0.003940212358 0.02067323766 0 -0.0004885870618 0.02057369037 0.002026331637 -0.0004885870618 0.02027600719 0.004033148592 -0.0004885870618 0.01978305498 0.006001124121 -0.0004885870618 0.01909958114 0.007911305545 -0.0004885870618 0.01823216789 0.009745296771 -0.0004885870618 0.0171891689 0.01148543546 -0.0004885870618 0.01598062881 0.01311496313 -0.0004885870618 0.01461818654 0.01461818654 -0.0004885870618 0.01311496313 0.01598062881 -0.0004885870618 0.01148543546 0.0171891689 -0.0004885870618 0.009745296771 0.01823216789 -0.0004885870618 0.007911305545 0.01909958114 -0.0004885870618 0.006001124121 0.01978305498 -0.0004885870618 0.004033148592 0.02027600719 -0.0004885870618 0.002026331637 0.02057369037 -0.0004885870618 1.265870716e-18 0.02067323766 -0.0004885870618 -0.002026331637 0.02057369037 -0.0004885870618 -0.004033148592 0.02027600719 -0.0004885870618 -0.006001124121 0.01978305498 -0.0004885870618 -0.007911305545 0.01909958114 -0.0004885870618 -0.009745296771 0.01823216789 -0.0004885870618 -0.01148543546 0.0171891689 -0.0004885870618 -0.01311496313 0.01598062881 -0.0004885870618 -0.01461818654 0.01461818654 -0.0004885870618 -0.01598062881 0.01311496313 -0.0004885870618 -0.0171891689 0.01148543546 -0.0004885870618 -0.01823216789 0.009745296771 -0.0004885870618 -0.01909958114 0.007911305545 -0.0004885870618 -0.01978305498 0.006001124121 -0.0004885870618 -0.02027600719 0.004033148592 -0.0004885870618 -0.02057369037 0.002026331637 -0.0004885870618 -0.02067323766 2.531741433e-18 -0.0004885870618 -0.02057369037 -0.002026331637 -0.0004885870618 -0.02027600719 -0.004033148592 -0.0004885870618 -0.01978305498 -0.006001124121 -0.0004885870618 -0.01909958114 -0.007911305545 -0.0004885870618 -0.01823216789 -0.009745296771 -0.0004885870618 -0.0171891689 -0.01148543546 -0.0004885870618 -0.01598062881 -0.01311496313 -0.0004885870618 -0.01461818654 -0.01461818654 -0.0004885870618 -0.01311496313 -0.01598062881 -0.0004885870618 -0.01148543546 -0.0171891689 -0.0004885870618 -0.009745296771 -0.01823216789 -0.0004885870618 -0.007911305545 -0.01909958114 -0.0004885870618 -0.006001124121 -0.01978305498 -0.0004885870618 -0.004033148592 -0.02027600719 -0.0004885870618 -0.002026331637 -0.02057369037 -0.0004885870618 -3.797612149e-18 -0.02067323766 -0.0004885870618 0.002026331637 -0.02057369037 -0.0004885870618 0.004033148592 -0.02027600719 -0.0004885870618 0.006001124121 -0.01978305498 -0.0004885870618 0.007911305545 -0.01909958114 -0.0004885870618 0.009745296771 -0.01823216789 -0.0004885870618 0.01148543546 -0.0171891689 -0.0004885870618 0.01311496313 -0.01598062881 -0.0004885870618 0.01461818654 -0.01461818654 -0.0004885870618 0.01598062881 -0.01311496313 -0.0004885870618 0.0171891689 -0.01148543546 -0.0004885870618 0.01823216789 -0.009745296771 -0.0004885870618 0.01909958114 -0.007911305545 -0.0004885870618 0.01978305498 -0.006001124121 -0.0004885870618 0.02027600719 -0.004033148592 -0.0004885870618 0.02057369037 -0.002026331637 -0.0004885870618 0.01905255888 0 0.00275 0.0189608156 0.001867477338 0.00275 0.01868646931 0.003716969848 0.00275 0.01823216209 0.005530665906 0.00275 0.01760226919 0.007291098629 0.00275 0.01680285682 0.008981314086 0.00275 0.01584162375 0.01058503458 0.00275 0.01472782718 0.0120868154 0.00275 0.01347219359 0.01347219359 0.00275 0.0120868154 0.01472782718 0.00275 0.01058503458 0.01584162375 0.00275 0.008981314086 0.01680285682 0.00275 0.007291098629 0.01760226919 0.00275 0.005530665906 0.01823216209 0.00275 0.003716969848 0.01868646931 0.00275 0.001867477338 0.0189608156 0.00275 1.166632763e-18 0.01905255888 0.00275 -0.001867477338 0.0189608156 0.00275 -0.003716969848 0.01868646931 0.00275 -0.005530665906 0.01823216209 0.00275 -0.007291098629 0.01760226919 0.00275 -0.008981314086 0.01680285682 0.00275 -0.01058503458 0.01584162375 0.00275 -0.0120868154 0.01472782718 0.00275 -0.01347219359 0.01347219359 0.00275 -0.01472782718 0.0120868154 0.00275 -0.01584162375 0.01058503458 0.00275 -0.01680285682 0.008981314086 0.00275 -0.01760226919 0.007291098629 0.00275 -0.01823216209 0.005530665906 0.00275 -0.01868646931 0.003716969848 0.00275 -0.0189608156 0.001867477338 0.00275 -0.01905255888 2.333265525e-18 0.00275 -0.0189608156 -0.001867477338 0.00275 -0.01868646931 -0.003716969848 0.00275 -0.01823216209 -0.005530665906 0.00275 -0.01760226919 -0.007291098629 0.00275 -0.01680285682 -0.008981314086 0.00275 -0.01584162375 -0.01058503458 0.00275 -0.01472782718 -0.0120868154 0.00275 -0.01347219359 -0.01347219359 0.00275 -0.0120868154 -0.01472782718 0.00275 -0.01058503458 -0.01584162375 0.00275 -0.008981314086 -0.01680285682 0.00275 -0.007291098629 -0.01760226919 0.00275 -0.005530665906 -0.01823216209 0.00275 -0.003716969848 -0.01868646931 0.00275 -0.001867477338 -0.0189608156 0.00275 -3.499898288e-18 -0.01905255888 0.00275 0.001867477338 -0.0189608156 0.00275 0.003716969848 -0.01868646931 0.00275 0.005530665906 -0.01823216209 0.00275 0.007291098629 -0.01760226919 0.00275 0.008981314086 -0.01680285682 0.00275 0.01058503458 -0.01584162375 0.00275 0.0120868154 -0.01472782718 0.00275 0.01347219359 -0.01347219359 0.00275 0.01472782718 -0.0120868154 0.00275 0.01584162375 -0.01058503458 0.00275 0.01680285682 -0.008981314086 0.00275 0.01760226919 -0.007291098629 0.00275 0.01823216209 -0.005530665906 0.00275 0.01868646931 -0.003716969848 0.00275 0.0189608156 -0.001867477338 0.00275 0.01685297775 0 0.005677145999 0.01677182605 0.001651880685 0.005677145999 0.01652915251 0.003287852856 0.005677145999 0.01612729418 0.004892161207 0.005677145999 0.0155701212 0.00644935537 0.005677145999 0.01486299944 0.007944438716 0.005677145999 0.01401273887 0.009363012775 0.005677145999 0.01302752797 0.0106914159 0.005677145999 0.01191685485 0.01191685485 0.005677145999 0.0106914159 0.01302752797 0.005677145999 0.009363012775 0.01401273887 0.005677145999 0.007944438716 0.01486299944 0.005677145999 0.00644935537 0.0155701212 0.005677145999 0.004892161207 0.01612729418 0.005677145999 0.003287852856 0.01652915251 0.005677145999 0.001651880685 0.01677182605 0.005677145999 1.031947263e-18 0.01685297775 0.005677145999 -0.001651880685 0.01677182605 0.005677145999 -0.003287852856 0.01652915251 0.005677145999 -0.004892161207 0.01612729418 0.005677145999 -0.00644935537 0.0155701212 0.005677145999 -0.007944438716 0.01486299944 0.005677145999 -0.009363012775 0.01401273887 0.005677145999 -0.0106914159 0.01302752797 0.005677145999 -0.01191685485 0.01191685485 0.005677145999 -0.01302752797 0.0106914159 0.005677145999 -0.01401273887 0.009363012775 0.005677145999 -0.01486299944 0.007944438716 0.005677145999 -0.0155701212 0.00644935537 0.005677145999 -0.01612729418 0.004892161207 0.005677145999 -0.01652915251 0.003287852856 0.005677145999 -0.01677182605 0.001651880685 0.005677145999 -0.01685297775 2.063894526e-18 0.005677145999 -0.01677182605 -0.001651880685 0.005677145999 -0.01652915251 -0.003287852856 0.005677145999 -0.01612729418 -0.004892161207 0.005677145999 -0.0155701212 -0.00644935537 0.005677145999 -0.01486299944 -0.007944438716 0.005677145999 -0.01401273887 -0.009363012775 0.005677145999 -0.01302752797 -0.0106914159 0.005677145999 -0.01191685485 -0.01191685485 0.005677145999 -0.0106914159 -0.01302752797 0.005677145999 -0.009363012775 -0.01401273887 0.005677145999 -0.007944438716 -0.01486299944 0.005677145999 -0.00644935537 -0.0155701212 0.005677145999 -0.004892161207 -0.01612729418 0.005677145999 -0.003287852856 -0.01652915251 0.005677145999 -0.001651880685 -0.01677182605 0.005677145999 -3.095841788e-18 -0.01685297775 0.005677145999 0.001651880685 -0.01677182605 0.005677145999 0.003287852856 -0.01652915251 0.005677145999 0.004892161207 -0.01612729418 0.005677145999 0.00644935537 -0.0155701212 0.005677145999 0.007944438716 -0.01486299944 0.005677145999 0.009363012775 -0.01401273887 0.005677145999 0.0106914159 -0.01302752797 0.005677145999 0.01191685485 -0.01191685485 0.005677145999 0.01302752797 -0.0106914159 0.005677145999 0.01401273887 -0.009363012775 0.005677145999 0.01486299944 -0.007944438716 0.005677145999 0.0155701212 -0.00644935537 0.005677145999 0.01612729418 -0.004892161207 0.005677145999 0.01652915251 -0.003287852856 0.005677145999 0.01677182605 -0.001651880685 0.005677145999 0.01414132741 0 0.008203911084 0.01407323306 0.001386092473 0.008203911084 0.01386960577 0.002758836119 0.008203911084 0.0135324066 0.004105010664 0.008203911084 0.01306488296 0.005411651713 0.008203911084 0.01247153735 0.006666175597 0.008203911084 0.01175808402 0.007856500566 0.008203911084 0.01093139391 0.00897116314 0.008203911084 0.009999428509 0.009999428509 0.008203911084 0.00897116314 0.01093139391 0.008203911084 0.007856500566 0.01175808402 0.008203911084 0.006666175597 0.01247153735 0.008203911084 0.005411651713 0.01306488296 0.008203911084 0.004105010664 0.0135324066 0.008203911084 0.002758836119 0.01386960577 0.008203911084 0.001386092473 0.01407323306 0.008203911084 8.659065676e-19 0.01414132741 0.008203911084 -0.001386092473 0.01407323306 0.008203911084 -0.002758836119 0.01386960577 0.008203911084 -0.004105010664 0.0135324066 0.008203911084 -0.005411651713 0.01306488296 0.008203911084 -0.006666175597 0.01247153735 0.008203911084 -0.007856500566 0.01175808402 0.008203911084 -0.00897116314 0.01093139391 0.008203911084 -0.009999428509 0.009999428509 0.008203911084 -0.01093139391 0.00897116314 0.008203911084 -0.01175808402 0.007856500566 0.008203911084 -0.01247153735 0.006666175597 0.008203911084 -0.01306488296 0.005411651713 0.008203911084 -0.0135324066 0.004105010664 0.008203911084 -0.01386960577 0.002758836119 0.008203911084 -0.01407323306 0.001386092473 0.008203911084 -0.01414132741 1.731813135e-18 0.008203911084 -0.01407323306 -0.001386092473 0.008203911084 -0.01386960577 -0.002758836119 0.008203911084 -0.0135324066 -0.004105010664 0.008203911084 -0.01306488296 -0.005411651713 0.008203911084 -0.01247153735 -0.006666175597 0.008203911084 -0.01175808402 -0.007856500566 0.008203911084 -0.01093139391 -0.00897116314 0.008203911084 -0.009999428509 -0.009999428509 0.008203911084 -0.00897116314 -0.01093139391 0.008203911084 -0.007856500566 -0.01175808402 0.008203911084 -0.006666175597 -0.01247153735 0.008203911084 -0.005411651713 -0.01306488296 0.008203911084 -0.004105010664 -0.0135324066 0.008203911084 -0.002758836119 -0.01386960577 0.008203911084 -0.001386092473 -0.01407323306 0.008203911084 -2.597719703e-18 -0.01414132741 0.008203911084 0.001386092473 -0.01407323306 0.008203911084 0.002758836119 -0.01386960577 0.008203911084 0.004105010664 -0.0135324066 0.008203911084 0.005411651713 -0.01306488296 0.008203911084 0.006666175597 -0.01247153735 0.008203911084 0.007856500566 -0.01175808402 0.008203911084 0.00897116314 -0.01093139391 0.008203911084 0.009999428509 -0.009999428509 0.008203911084 0.01093139391 -0.00897116314 0.008203911084 0.01175808402 -0.007856500566 0.008203911084 0.01247153735 -0.006666175597 0.008203911084 0.01306488296 -0.005411651713 0.008203911084 0.0135324066 -0.004105010664 0.008203911084 0.01386960577 -0.002758836119 0.008203911084 0.01407323306 -0.001386092473 0.008203911084 0.011 0 0.01025352078 0.01094703199 0.001078188544 0.01025352078 0.01078863808 0.002145993542 0.01025352078 0.01052634369 0.00319313145 0.01025352078 0.01016267486 0.004209517756 0.01025352078 0.009701133908 0.005185364105 0.01025352078 0.009146165735 0.006111272563 0.01025352078 0.008503114987 0.006978326126 0.01025352078 0.007778174593 0.007778174593 0.01025352078 0.006978326126 0.008503114987 0.01025352078 0.006111272563 0.009146165735 0.01025352078 0.005185364105 0.009701133908 0.01025352078 0.004209517756 0.01016267486 0.01025352078 0.00319313145 0.01052634369 0.01025352078 0.002145993542 0.01078863808 0.01025352078 0.001078188544 0.01094703199 0.01025352078 6.735557395e-19 0.011 0.01025352078 -0.001078188544 0.01094703199 0.01025352078 -0.002145993542 0.01078863808 0.01025352078 -0.00319313145 0.01052634369 0.01025352078 -0.004209517756 0.01016267486 0.01025352078 -0.005185364105 0.009701133908 0.01025352078 -0.006111272563 0.009146165735 0.01025352078 -0.006978326126 0.008503114987 0.01025352078 -0.007778174593 0.007778174593 0.01025352078 -0.008503114987 0.006978326126 0.01025352078 -0.009146165735 0.006111272563 0.01025352078 -0.009701133908 0.005185364105 0.01025352078 -0.01016267486 0.004209517756 0.01025352078 -0.01052634369 0.00319313145 0.01025352078 -0.01078863808 0.002145993542 0.01025352078 -0.01094703199 0.001078188544 0.01025352078 -0.011 1.347111479e-18 0.01025352078 -0.01094703199 -0.001078188544 0.01025352078 -0.01078863808 -0.002145993542 0.01025352078 -0.01052634369 -0.00319313145 0.01025352078 -0.01016267486 -0.004209517756 0.01025352078 -0.009701133908 -0.005185364105 0.01025352078 -0.009146165735 -0.006111272563 0.01025352078 -0.008503114987 -0.006978326126 0.01025352078 -0.007778174593 -0.007778174593 0.01025352078 -0.006978326126 -0.008503114987 0.01025352078 -0.006111272563 -0.009146165735 0.01025352078 -0.005185364105 -0.009701133908 0.01025352078 -0.004209517756 -0.01016267486 0.01025352078 -0.00319313145 -0.01052634369 0.01025352078 -0.002145993542 -0.01078863808 0.01025352078 -0.001078188544 -0.01094703199 0.01025352078 -2.020667219e-18 -0.011 0.01025352078 0.001078188544 -0.01094703199 0.01025352078 0.002145993542 -0.01078863808 0.01025352078 0.00319313145 -0.01052634369 0.01025352078 0.004209517756 -0.01016267486 0.01025352078 0.005185364105 -0.009701133908 0.01025352078 0.006111272563 -0.009146165735 0.01025352078 0.006978326126 -0.008503114987 0.01025352078 0.007778174593 -0.007778174593 0.01025352078 0.008503114987 -0.006978326126 0.01025352078 0.009146165735 -0.006111272563 0.01025352078 0.009701133908 -0.005185364105 0.01025352078 0.01016267486 -0.004209517756 0.01025352078 0.01052634369 -0.00319313145 0.01025352078 0.01078863808 -0.002145993542 0.01025352078 0.01094703199 -0.001078188544 0.01025352078 0.007524443153 0 0.01176369873 0.007488210903 0.0007375244004 0.01176369873 0.007379863088 0.001467946038 0.01176369873 0.007200443157 0.002184230552 0.01176369873 0.006951679023 0.002879479732 0.01176369873 0.006635966419 0.003546997949 0.01176369873 0.006256345831 0.004180356636 0.01176369873 0.005816473213 0.004773456203 0.01176369873 0.005320584778 0.005320584778 0.01176369873 0.004773456203 0.005816473213 0.01176369873 0.004180356636 0.006256345831 0.01176369873 0.003546997949 0.006635966419 0.01176369873 0.002879479732 0.006951679023 0.01176369873 0.002184230552 0.007200443157 0.01176369873 0.001467946038 0.007379863088 0.01176369873 0.0007375244004 0.007488210903 0.01176369873 4.607392611e-19 0.007524443153 0.01176369873 -0.0007375244004 0.007488210903 0.01176369873 -0.001467946038 0.007379863088 0.01176369873 -0.002184230552 0.007200443157 0.01176369873 -0.002879479732 0.006951679023 0.01176369873 -0.003546997949 0.006635966419 0.01176369873 -0.004180356636 0.006256345831 0.01176369873 -0.004773456203 0.005816473213 0.01176369873 -0.005320584778 0.005320584778 0.01176369873 -0.005816473213 0.004773456203 0.01176369873 -0.006256345831 0.004180356636 0.01176369873 -0.006635966419 0.003546997949 0.01176369873 -0.006951679023 0.002879479732 0.01176369873 -0.007200443157 0.002184230552 0.01176369873 -0.007379863088 0.001467946038 0.01176369873 -0.007488210903 0.0007375244004 0.01176369873 -0.007524443153 9.214785223e-19 0.01176369873 -0.007488210903 -0.0007375244004 0.01176369873 -0.007379863088 -0.001467946038 0.01176369873 -0.007200443157 -0.002184230552 0.01176369873 -0.006951679023 -0.002879479732 0.01176369873 -0.006635966419 -0.003546997949 0.01176369873 -0.006256345831 -0.004180356636 0.01176369873 -0.005816473213 -0.004773456203 0.01176369873 -0.005320584778 -0.005320584778 0.01176369873 -0.004773456203 -0.005816473213 0.01176369873 -0.004180356636 -0.006256345831 0.01176369873 -0.003546997949 -0.006635966419 0.01176369873 -0.002879479732 -0.006951679023 0.01176369873 -0.002184230552 -0.007200443157 0.01176369873 -0.001467946038 -0.007379863088 0.01176369873 -0.0007375244004 -0.007488210903 0.01176369873 -1.382217783e-18 -0.007524443153 0.01176369873 0.0007375244004 -0.007488210903 0.01176369873 0.001467946038 -0.007379863088 0.01176369873 0.002184230552 -0.007200443157 0.01176369873 0.002879479732 -0.006951679023 0.01176369873 0.003546997949 -0.006635966419 0.01176369873 0.004180356636 -0.006256345831 0.01176369873 0.004773456203 -0.005816473213 0.01176369873 0.005320584778 -0.005320584778 0.01176369873 0.005816473213 -0.004773456203 0.01176369873 0.006256345831 -0.004180356636 0.01176369873 0.006635966419 -0.003546997949 0.01176369873 0.006951679023 -0.002879479732 0.01176369873 0.007200443157 -0.002184230552 0.01176369873 0.007379863088 -0.001467946038 0.01176369873 0.007488210903 -0.0007375244004 0.01176369873 0.003820259909 0 0.01268855894 0.003801864313 0.0003744509516 0.01268855894 0.003746854686 0.0007452957358 0.01268855894 0.0036557608 0.001108962915 0.01268855894 0.003529459938 0.001461950174 0.01268855894 0.003369168449 0.001800858055 0.01268855894 0.003176430025 0.002122422688 0.01268855894 0.002953100844 0.00242354723 0.01268855894 0.002701331687 0.002701331687 0.01268855894 0.00242354723 0.002953100844 0.01268855894 0.002122422688 0.003176430025 0.01268855894 0.001800858055 0.003369168449 0.01268855894 0.001461950174 0.003529459938 0.01268855894 0.001108962915 0.0036557608 0.01268855894 0.0007452957358 0.003746854686 0.01268855894 0.0003744509516 0.003801864313 0.01268855894 2.339234535e-19 0.003820259909 0.01268855894 -0.0003744509516 0.003801864313 0.01268855894 -0.0007452957358 0.003746854686 0.01268855894 -0.001108962915 0.0036557608 0.01268855894 -0.001461950174 0.003529459938 0.01268855894 -0.001800858055 0.003369168449 0.01268855894 -0.002122422688 0.003176430025 0.01268855894 -0.00242354723 0.002953100844 0.01268855894 -0.002701331687 0.002701331687 0.01268855894 -0.002953100844 0.00242354723 0.01268855894 -0.003176430025 0.002122422688 0.01268855894 -0.003369168449 0.001800858055 0.01268855894 -0.003529459938 0.001461950174 0.01268855894 -0.0036557608 0.001108962915 0.01268855894 -0.003746854686 0.0007452957358 0.01268855894 -0.003801864313 0.0003744509516 0.01268855894 -0.003820259909 4.678469069e-19 0.01268855894 -0.003801864313 -0.0003744509516 0.01268855894 -0.003746854686 -0.0007452957358 0.01268855894 -0.0036557608 -0.001108962915 0.01268855894 -0.003529459938 -0.001461950174 0.01268855894 -0.003369168449 -0.001800858055 0.01268855894 -0.003176430025 -0.002122422688 0.01268855894 -0.002953100844 -0.00242354723 0.01268855894 -0.002701331687 -0.002701331687 0.01268855894 -0.00242354723 -0.002953100844 0.01268855894 -0.002122422688 -0.003176430025 0.01268855894 -0.001800858055 -0.003369168449 0.01268855894 -0.001461950174 -0.003529459938 0.01268855894 -0.001108962915 -0.0036557608 0.01268855894 -0.0007452957358 -0.003746854686 0.01268855894 -0.0003744509516 -0.003801864313 0.01268855894 -7.017703604e-19 -0.003820259909 0.01268855894 0.0003744509516 -0.003801864313 0.01268855894 0.0007452957358 -0.003746854686 0.01268855894 0.001108962915 -0.0036557608 0.01268855894 0.001461950174 -0.003529459938 0.01268855894 0.001800858055 -0.003369168449 0.01268855894 0.002122422688 -0.003176430025 0.01268855894 0.00242354723 -0.002953100844 0.01268855894 0.002701331687 -0.002701331687 0.01268855894 0.002953100844 -0.00242354723 0.01268855894 0.003176430025 -0.002122422688 0.01268855894 0.003369168449 -0.001800858055 0.01268855894 0.003529459938 -0.001461950174 0.01268855894 0.0036557608 -0.001108962915 0.01268855894 0.003746854686 -0.0007452957358 0.01268855894 0.003801864313 -0.0003744509516 0.01268855894 0 0 -0.047 0 0 0.013 -0.0325 0 -0.0387 -0.0325 -0.00058810284 -0.03867110836 -0.0325 0.00058810284 -0.03867110836 -0.0325 -0.00117054193 -0.03858471168 -0.0325 0.00117054193 -0.03858471168 -0.0325 -0.00174170806 -0.03844164201 -0.0325 0.00174170806 -0.03844164201 -0.0325 -0.00229610059 -0.0382432772 -0.0325 0.00229610059 -0.0382432772 -0.0325 -0.00282838042 -0.03799152759 -0.0325 0.00282838042 -0.03799152759 -0.0325 -0.0033334214 -0.03768881767 -0.0325 0.0033334214 -0.03768881767 -0.0325 -0.0038063597 -0.03733806272 -0.0325 0.0038063597 -0.03733806272 -0.0325 -0.00424264069 -0.03694264069 -0.0325 0.00424264069 -0.03694264069 -0.0325 -0.00463806272 -0.0365063597 -0.0325 0.00463806272 -0.0365063597 -0.0325 -0.00498881767 -0.0360334214 -0.0325 0.00498881767 -0.0360334214 -0.0325 -0.00529152759 -0.03552838042 -0.0325 0.00529152759 -0.03552838042 -0.0325 -0.0055432772 -0.03499610059 -0.0325 0.0055432772 -0.03499610059 -0.0325 -0.00574164201 -0.03444170806 -0.0325 0.00574164201 -0.03444170806 -0.0325 -0.00588471168 -0.03387054193 -0.0325 0.00588471168 -0.03387054193 -0.0325 -0.00597110836 -0.03328810284 -0.0325 0.00597110836 -0.03328810284 -0.0325 -0.006 -0.0327 -0.0325 0.006 -0.0327 -0.0325 -0.00597110836 -0.03211189716 -0.0325 0.00597110836 -0.03211189716 -0.0325 -0.00588471168 -0.03152945807 -0.0325 0.00588471168 -0.03152945807 -0.0325 -0.00574164201 -0.03095829194 -0.0325 0.00574164201 -0.03095829194 -0.0325 -0.0055432772 -0.03040389941 -0.0325 0.0055432772 -0.03040389941 -0.0325 -0.00529152759 -0.02987161958 -0.0325 0.00529152759 -0.02987161958 -0.0325 -0.00498881767 -0.0293665786 -0.0325 0.00498881767 -0.0293665786 -0.0325 -0.00463806272 -0.0288936403 -0.0325 0.00463806272 -0.0288936403 -0.0325 -0.00424264069 -0.02845735931 -0.0325 0.00424264069 -0.02845735931 -0.0325 -0.0038063597 -0.02806193728 -0.0325 0.0038063597 -0.02806193728 -0.0325 -0.0033334214 -0.02771118233 -0.0325 0.0033334214 -0.02771118233 -0.0325 -0.00282838042 -0.02740847241 -0.0325 0.00282838042 -0.02740847241 -0.0325 -0.00229610059 -0.0271567228 -0.0325 0.00229610059 -0.0271567228 -0.0325 -0.00174170806 -0.02695835799 -0.0325 0.00174170806 -0.02695835799 -0.0325 -0.00117054193 -0.02681528832 -0.0325 0.00117054193 -0.02681528832 -0.0325 -0.00058810284 -0.02672889164 -0.0325 0.00058810284 -0.02672889164 -0.0325 0 -0.0267 -0.0405 0 -0.0387 -0.0405 -0.00058810284 -0.03867110836 -0.0405 0.00058810284 -0.03867110836 -0.0405 -0.00117054193 -0.03858471168 -0.0405 0.00117054193 -0.03858471168 -0.0405 -0.00174170806 -0.03844164201 -0.0405 0.00174170806 -0.03844164201 -0.0405 -0.00229610059 -0.0382432772 -0.0405 0.00229610059 -0.0382432772 -0.0405 -0.00282838042 -0.03799152759 -0.0405 0.00282838042 -0.03799152759 -0.0405 -0.0033334214 -0.03768881767 -0.0405 0.0033334214 -0.03768881767 -0.0405 -0.0038063597 -0.03733806272 -0.0405 0.0038063597 -0.03733806272 -0.0405 -0.00424264069 -0.03694264069 -0.0405 0.00424264069 -0.03694264069 -0.0405 -0.00463806272 -0.0365063597 -0.0405 0.00463806272 -0.0365063597 -0.0405 -0.00498881767 -0.0360334214 -0.0405 0.00498881767 -0.0360334214 -0.0405 -0.00529152759 -0.03552838042 -0.0405 0.00529152759 -0.03552838042 -0.0405 -0.0055432772 -0.03499610059 -0.0405 0.0055432772 -0.03499610059 -0.0405 -0.00574164201 -0.03444170806 -0.0405 0.00574164201 -0.03444170806 -0.0405 -0.00588471168 -0.03387054193 -0.0405 0.00588471168 -0.03387054193 -0.0405 -0.00597110836 -0.03328810284 -0.0405 0.00597110836 -0.03328810284 -0.0405 -0.006 -0.0327 -0.0405 0.006 -0.0327 -0.0405 -0.00597110836 -0.03211189716 -0.0405 0.00597110836 -0.03211189716 -0.0405 -0.00588471168 -0.03152945807 -0.0405 0.00588471168 -0.03152945807 -0.0405 -0.00574164201 -0.03095829194 -0.0405 0.00574164201 -0.03095829194 -0.0405 -0.0055432772 -0.03040389941 -0.0405 0.0055432772 -0.03040389941 -0.0405 -0.00529152759 -0.02987161958 -0.0405 0.00529152759 -0.02987161958 -0.0405 -0.00498881767 -0.0293665786 -0.0405 0.00498881767 -0.0293665786 -0.0405 -0.00463806272 -0.0288936403 -0.0405 0.00463806272 -0.0288936403 -0.0405 -0.00424264069 -0.02845735931 -0.0405 0.00424264069 -0.02845735931 -0.0405 -0.0038063597 -0.02806193728 -0.0405 0.0038063597 -0.02806193728 -0.0405 -0.0033334214 -0.02771118233 -0.0405 0.0033334214 -0.02771118233 -0.0405 -0.00282838042 -0.02740847241 -0.0405 0.00282838042 -0.02740847241 -0.0405 -0.00229610059 -0.0271567228 -0.0405 0.00229610059 -0.0271567228 -0.0405 -0.00174170806 -0.02695835799 -0.0405 0.00174170806 -0.02695835799 -0.0405 -0.00117054193 -0.02681528832 -0.0405 0.00117054193 -0.02681528832 -0.0405 -0.00058810284 -0.02672889164 -0.0405 0.00058810284 -0.02672889164 -0.0405 0 -0.0267</float_array><technique_common><accessor source="#position-array" count="834" stride="3"><param name="X" type="float"/><param name="Y" type="float"/><param name="Z" type="float"/></accessor></technique_common></source>
<vertices id="vertices"><input semantic="POSITION" source="#positions"/></vertices>
<triangles count="1660" material="surface"><input semantic="VERTEX" source="#vertices" offset="0"/><p>704 1 0 0 1 65 0 65 64 64 65 129 64 129 128 128 129 193 128 193 192 192 193 257 192 257 256 256 257 321 256 321 320 320 321 385 320 385 384 384 385 449 384 449 448 448 449 513 448 513 512 512 513 577 512 577 576 576 577 641 576 641 640 640 641 705 704 2 1 1 2 66 1 66 65 65 66 130 65 130 129 129 130 194 129 194 193 193 194 258 193 258 257 257 258 322 257 322 321 321 322 386 321 386 385 385 386 450 385 450 449 449 450 514 449 514 513 513 514 578 513 578 577 577 578 642 577 642 641 641 642 705 704 3 2 2 3 67 2 67 66 66 67 131 66 131 130 130 131 195 130 195 194 194 195 259 194 259 258 258 259 323 258 323 322 322 323 387 322 387 386 386 387 451 386 451 450 450 451 515 450 515 514 514 515 579 514 579 578 578 579 643 578 643 642 642 643 705 704 4 3 3 4 68 3 68 67 67 68 132 67 132 131 131 132 196 131 196 195 195 196 260 195 260 259 259 260 324 259 324 323 323 324 388 323 388 387 387 388 452 387 452 451 451 452 516 451 516 515 515 516 580 515 580 579 579 580 644 579 644 643 643 644 705 704 5 4 4 5 69 4 69 68 68 69 133 68 133 132 132 133 197 132 197 196 196 197 261 196 261 260 260 261 325 260 325 324 324 325 389 324 389 388 388 389 453 388 453 452 452 453 517 452 517 516 516 517 581 516 581 580 580 581 645 580 645 644 644 645 705 704 6 5 5 6 70 5 70 69 69 70 134 69 134 133 133 134 198 133 198 197 197 198 262 197 262 261 261 262 326 261 326 325 325 326 390 325 390 389 389 390 454 389 454 453 453 454 518 453 518 517 517 518 582 517 582 581 581 582 646 581 646 645 645 646 705 704 7 6 6 7 71 6 71 70 70 71 135 70 135 134 134 135 199 134 199 198 198 199 263 198 263 262 262 263 327 262 327 326 326 327 391 326 391 390 390 391 455 390 455 454 454 455 519 454 519 518 518 519 583 518 583 582 582 583 647 582 647 646 646 647 705 704 8 7 7 8 72 7 72 71 71 72 136 71 136 135 135 136 200 135 200 199 199 200 264 199 264 263 263 264 328 263 328 327 327 328 392 327 392 391 391 392 456 391 456 455 455 456 520 455 520 519 519 520 584 519 584 583 583 584 648 583 648 647 647 648 705 704 9 8 8 9 73 8 73 72 72 73 137 72 137 136 136 137 201 136 201 200 200 201 265 200 265 264 264 265 329 264 329 328 328 329 393 328 393 392 392 393 457 392 457 456 456 457 521 456 521 520 520 521 585 520 585 584 584 585 649 584 649 648 648 649 705 704 10 9 9 10 74 9 74 73 73 74 138 73 138 137 137 138 202 137 202 201 201 202 266 201 266 265 265 266 330 265 330 329 329 330 394 329 394 393 393 394 458 393 458 457 457 458 522 457 522 521 521 522 586 521 586 585 585 586 650 585 650 649 649 650 705 704 11 10 10 11 75 10 75 74 74 75 139 74 139 138 138 139 203 138 203 202 202 203 267 202 267 266 266 267 331 266 331 330 330 331 395 330 395 394 394 395 459 394 459 458 458 459 523 458 523 522 522 523 587 522 587 586 586 587 651 586 651 650 650 651 705 704 12 11 11 12 76 11 76 75 75 76 140 75 140 139 139 140 204 139 204 203 203 204 268 203 268 267 267 268 332 267 332 331 331 332 396 331 396 395 395 396 460 395 460 459 459 460 524 459 524 523 523 524 588 523 588 587 587 588 652 587 652 651 651 652 705 704 13 12 12 13 77 12 77 76 76 77 141 76 141 140 140 141 205 140 205 204 204 205 269 204 269 268 268 269 333 268 333 332 332 333 397 332 397 396 396 397 461 396 461 460 460 461 525 460 525 524 524 525 589 524 589 588 588 589 653 588 653 652 652 653 705 704 14 13 13 14 78 13 78 77 77 78 142 77 142 141 141 142 206 141 206 205 205 206 270 205 270 269 269 270 334 269 334 333 333 334 398 333 398 397 397 398 462 397 462 461 461 462 526 461 526 525 525 526 590 525 590 589 589 590 654 589 654 653 653 654 705 704 15 14 14 15 79 14 79 78 78 79 143 78 143 142 142 143 207 142 207 206 206 207 271 206 271 270 270 271 335 270 335 334 334 335 399 334 399 398 398 399 463 398 463 462 462 463 527 462 527 526 526 527 591 526 591 590 590 591 655 590 655 654 654 655 705 704 16 15 15 16 80 15 80 79 79 80 144 79 144 143 143 144 208 143 208 207 207 208 272 207 272 271 271 272 336 271 336 335 335 336 400 335 400 399 399 400 464 399 464 463 463 464 528 463 528 527 527 528 592 527 592 591 591 592 656 591 656 655 655 656 705 704 17 16 16 17 81 16 81 80 80 81 145 80 145 144 144 145 209 144 209 208 208 209 273 208 273 272 272 273 337 272 337 336 336 337 401 336 401 400 400 401 465 400 465 464 464 465 529 464 529 528 528 529 593 528 593 592 592 593 657 592 657 656 656 657 705 704 18 17 17 18 82 17 82 81 81 82 146 81 146 145 145 146 210 145 210 209 209 210 274 209 274 273 273 274 338 273 338 337 337 338 402 337 402 401 401 402 466 401 466 465 465 466 530 465 530 529 529 530 594 529 594 593 593 594 658 593 658 657 657 658 705 704 19 18 18 19 83 18 83 82 82 83 147 82 147 146 146 147 211 146 211 210 210 211 275 210 275 274 274 275 339 274 339 338 338 339 403 338 403 402 402 403 467 402 467 466 466 467 531 466 531 530 530 531 595 530 595 594 594 595 659 594 659 658 658 659 705 704 20 19 19 20 84 19 84 83 83 84 148 83 148 147 147 148 212 147 212 211 211 212 276 211 276 275 275 276 340 275 340 339 339 340 404 339 404 403 403 404 468 403 468 467 467 468 532 467 532 531 531 532 596 531 596 595 595 596 660 595 660 659 659 660 705 704 21 20 20 21 85 20 85 84 84 85 149 84 149 148 148 149 213 148 213 212 212 213 277 212 277 276 276 277 341 276 341 340 340 341 405 340 405 404 404 405 469 404 469 468 468 469 533 468 533 532 532 533 597 532 597 596 596 597 661 596 661 660 660 661 705 704 22 21 21 22 86 21 86 85 85 86 150 85 150 149 149 150 214 149 214 213 213 214 278 213 278 277 277 278 342 277 342 341 341 342 406 341 406 405 405 406 470 405 470 469 469 470 534 469 534 533 533 534 598 533 598 597 597 598 662 597 662 661 661 662 705 704 23 22 22 23 87 22 87 86 86 87 151 86 151 150 150 151 215 150 215 214 214 215 279 214 279 278 278 279 343 278 343 342 342 343 407 342 407 406 406 407 471 406 471 470 470 471 535 470 535 534 534 535 599 534 599 598 598 599 663 598 663 662 662 663 705 704 24 23 23 24 88 23 88 87 87 88 152 87 152 151 151 152 216 151 216 215 215 216 280 215 280 279 279 280 344 279 344 343 343 344 408 343 408 407 407 408 472 407 472 471 471 472 536 471 536 535 535 536 600 535 600 599 599 600 664 599 664 663 663 664 705 704 25 24 24 25 89 24 89 88 88 89 153 88 153 152 152 153 217 152 217 216 216 217 281 216 281 280 280 281 345 280 345 344 344 345 409 344 409 408 408 409 473 408 473 472 472 473 537 472 537 536 536 537 601 536 601 600 600 601 665 600 665 664 664 665 705 704 26 25 25 26 90 25 90 89 89 90 154 89 154 153 153 154 218 153 218 217 217 218 282 217 282 281 281 282 346 281 346 345 345 346 410 345 410 409 409 410 474 409 474 473 473 474 538 473 538 537 537 538 602 537 602 601 601 602 666 601 666 665 665 666 705 704 27 26 26 27 91 26 91 90 90 91 155 90 155 154 154 155 219 154 219 218 218 219 283 218 283 282 282 283 347 282 347 346 346 347 411 346 411 410 410 411 475 410 475 474 474 475 539 474 539 538 538 539 603 538 603 602 602 603 667 602 667 666 666 667 705 704 28 27 27 28 92 27 92 91 91 92 156 91 156 155 155 156 220 155 220 219 219 220 284 219 284 283 283 284 348 283 348 347 347 348 412 347 412 411 411 412 476 411 476 475 475 476 540 475 540 539 539 540 604 539 604 603 603 604 668 603 668 667 667 668 705 704 29 28 28 29 93 28 93 92 92 93 157 92 157 156 156 157 221 156 221 220 220 221 285 220 285 284 284 285 349 284 349 348 348 349 413 348 413 412 412 413 477 412 477 476 476 477 541 476 541 540 540 541 605 540 605 604 604 605 669 604 669 668 668 669 705 704 30 29 29 30 94 29 94 93 93 94 158 93 158 157 157 158 222 157 222 221 221 222 286 221 286 285 285 286 350 285 350 349 349 350 414 349 414 413 413 414 478 413 478 477 477 478 542 477 542 541 541 542 606 541 606 605 605 606 670 605 670 669 669 670 705 704 31 30 30 31 95 30 95 94 94 95 159 94 159 158 158 159 223 158 223 222 222 223 287 222 287 286 286 287 351 286 351 350 350 351 415 350 415 414 414 415 479 414 479 478 478 479 543 478 543 542 542 543 607 542 607 606 606 607 671 606 671 670 670 671 705 704 32 31 31 32 96 31 96 95 95 96 160 95 160 159 159 160 224 159 224 223 223 224 288 223 288 287 287 288 352 287 352 351 351 352 416 351 416 415 415 416 480 415 480 479 479 480 544 479 544 543 543 544 608 543 608 607 607 608 672 607 672 671 671 672 705 704 33 32 32 33 97 32 97 96 96 97 161 96 161 160 160 161 225 160 225 224 224 225 289 224 289 288 288 289 353 288 353 352 352 353 417 352 417 416 416 417 481 416 481 480 480 481 545 480 545 544 544 545 609 544 609 608 608 609 673 608 673 672 672 673 705 704 34 33 33 34 98 33 98 97 97 98 162 97 162 161 161 162 226 161 226 225 225 226 290 225 290 289 289 290 354 289 354 353 353 354 418 353 418 417 417 418 482 417 482 481 481 482 546 481 546 545 545 546 610 545 610 609 609 610 674 609 674 673 673 674 705 704 35 34 34 35 99 34 99 98 98 99 163 98 163 162 162 163 227 162 227 226 226 227 291 226 291 290 290 291 355 290 355 354 354 355 419 354 419 418 418 419 483 418 483 482 482 483 547 482 547 546 546 547 611 546 611 610 610 611 675 610 675 674 674 675 705 704 36 35 35 36 100 35 100 99 99 100 164 99 164 163 163 164 228 163 228 227 227 228 292 227 292 291 291 292 356 291 356 355 355 356 420 355 420 419 419 420 484 419 484 483 483 484 548 483 548 547 547 548 612 547 612 611 611 612 676 611 676 675 675 676 705 704 37 36 36 37 101 36 101 100 100 101 165 100 165 164 164 165 229 164 229 228 228 229 293 228 293 292 292 293 357 292 357 356 356 357 421 356 421 420 420 421 485 420 485 484 484 485 549 484 549 548 548 549 613 548 613 612 612 613 677 612 677 676 676 677 705 704 38 37 37 38 102 37 102 101 101 102 166 101 166 165 165 166 230 165 230 229 229 230 294 229 294 293 293 294 358 293 358 357 357 358 422 357 422 421 421 422 486 421 486 485 485 486 550 485 550 549 549 550 614 549 614 613 613 614 678 613 678 677 677 678 705 704 39 38 38 39 103 38 103 102 102 103 167 102 167 166 166 167 231 166 231 230 230 231 295 230 295 294 294 295 359 294 359 358 358 359 423 358 423 422 422 423 487 422 487 486 486 487 551 486 551 550 550 551 615 550 615 614 614 615 679 614 679 678 678 679 705 704 40 39 39 40 104 39 104 103 103 104 168 103 168 167 167 168 232 167 232 231 231 232 296 231 296 295 295 296 360 295 360 359 359 360 424 359 424 423 423 424 488 423 488 487 487 488 552 487 552 551 551 552 616 551 616 615 615 616 680 615 680 679 679 680 705 704 41 40 40 41 105 40 105 104 104 105 169 104 169 168 168 169 233 168 233 232 232 233 297 232 297 296 296 297 361 296 361 360 360 361 425 360 425 424 424 425 489 424 489 488 488 489 553 488 553 552 552 553 617 552 617 616 616 617 681 616 681 680 680 681 705 704 42 41 41 42 106 41 106 105 105 106 170 105 170 169 169 170 234 169 234 233 233 234 298 233 298 297 297 298 362 297 362 361 361 362 426 361 426 425 425 426 490 425 490 489 489 490 554 489 554 553 553 554 618 553 618 617 617 618 682 617 682 681 681 682 705 704 43 42 42 43 107 42 107 106 106 107 171 106 171 170 170 171 235 170 235 234 234 235 299 234 299 298 298 299 363 298 363 362 362 363 427 362 427 426 426 427 491 426 491 490 490 491 555 490 555 554 554 555 619 554 619 618 618 619 683 618 683 682 682 683 705 704 44 43 43 44 108 43 108 107 107 108 172 107 172 171 171 172 236 171 236 235 235 236 300 235 300 299 299 300 364 299 364 363 363 364 428 363 428 427 427 428 492 427 492 491 491 492 556 491 556 555 555 556 620 555 620 619 619 620 684 619 684 683 683 684 705 704 45 44 44 45 109 44 109 108 108 109 173 108 173 172 172 173 237 172 237 236 236 237 301 236 301 300 300 301 365 300 365 364 364 365 429 364 429 428 428 429 493 428 493 492 492 493 557 492 557 556 556 557 621 556 621 620 620 621 685 620 685 684 684 685 705 704 46 45 45 46 110 45 110 109 109 110 174 109 174 173 173 174 238 173 238 237 237 238 302 237 302 301 301 302 366 301 366 365 365 366 430 365 430 429 429 430 494 429 494 493 493 494 558 493 558 557 557 558 622 557 622 621 621 622 686 621 686 685 685 686 705 704 47 46 46 47 111 46 111 110 110 111 175 110 175 174 174 175 239 174 239 238 238 239 303 238 303 302 302 303 367 302 367 366 366 367 431 366 431 430 430 431 495 430 495 494 494 495 559 494 559 558 558 559 623 558 623 622 622 623 687 622 687 686 686 687 705 704 48 47 47 48 112 47 112 111 111 112 176 111 176 175 175 176 240 175 240 239 239 240 304 239 304 303 303 304 368 303 368 367 367 368 432 367 432 431 431 432 496 431 496 495 495 496 560 495 560 559 559 560 624 559 624 623 623 624 688 623 688 687 687 688 705 704 49 48 48 49 113 48 113 112 112 113 177 112 177 176 176 177 241 176 241 240 240 241 305 240 305 304 304 305 369 304 369 368 368 369 433 368 433 432 432 433 497 432 497 496 496 497 561 496 561 560 560 561 625 560 625 624 624 625 689 624 689 688 688 689 705 704 50 49 49 50 114 49 114 113 113 114 178 113 178 177 177 178 242 177 242 241 241 242 306 241 306 305 305 306 370 305 370 369 369 370 434 369 434 433 433 434 498 433 498 497 497 498 562 497 562 561 561 562 626 561 626 625 625 626 690 625 690 689 689 690 705 704 51 50 50 51 115 50 115 114 114 115 179 114 179 178 178 179 243 178 243 242 242 243 307 242 307 306 306 307 371 306 371 370 370 371 435 370 435 434 434 435 499 434 499 498 498 499 563 498 563 562 562 563 627 562 627 626 626 627 691 626 691 690 690 691 705 704 52 51 51 52 116 51 116 115 115 116 180 115 180 179 179 180 244 179 244 243 243 244 308 243 308 307 307 308 372 307 372 371 371 372 436 371 436 435 435 436 500 435 500 499 499 500 564 499 564 563 563 564 628 563 628 627 627 628 692 627 692 691 691 692 705 704 53 52 52 53 117 52 117 116 116 117 181 116 181 180 180 181 245 180 245 244 244 245 309 244 309 308 308 309 373 308 373 372 372 373 437 372 437 436 436 437 501 436 501 500 500 501 565 500 565 564 564 565 629 564 629 628 628 629 693 628 693 692 692 693 705 704 54 53 53 54 118 53 118 117 117 118 182 117 182 181 181 182 246 181 246 245 245 246 310 245 310 309 309 310 374 309 374 373 373 374 438 373 438 437 437 438 502 437 502 501 501 502 566 501 566 565 565 566 630 565 630 629 629 630 694 629 694 693 693 694 705 704 55 54 54 55 119 54 119 118 118 119 183 118 183 182 182 183 247 182 247 246 246 247 311 246 311 310 310 311 375 310 375 374 374 375 439 374 439 438 438 439 503 438 503 502 502 503 567 502 567 566 566 567 631 566 631 630 630 631 695 630 695 694 694 695 705 704 56 55 55 56 120 55 120 119 119 120 184 119 184 183 183 184 248 183 248 247 247 248 312 247 312 311 311 312 376 311 376 375 375 376 440 375 440 439 439 440 504 439 504 503 503 504 568 503 568 567 567 568 632 567 632 631 631 632 696 631 696 695 695 696 705 704 57 56 56 57 121 56 121 120 120 121 185 120 185 184 184 185 249 184 249 248 248 249 313 248 313 312 312 313 377 312 377 376 376 377 441 376 441 440 440 441 505 440 505 504 504 505 569 504 569 568 568 569 633 568 633 632 632 633 697 632 697 696 696 697 705 704 58 57 57 58 122 57 122 121 121 122 186 121 186 185 185 186 250 185 250 249 249 250 314 249 314 313 313 314 378 313 378 377 377 378 442 377 442 441 441 442 506 441 506 505 505 506 570 505 570 569 569 570 634 569 634 633 633 634 698 633 698 697 697 698 705 704 59 58 58 59 123 58 123 122 122 123 187 122 187 186 186 187 251 186 251 250 250 251 315 250 315 314 314 315 379 314 379 378 378 379 443 378 443 442 442 443 507 442 507 506 506 507 571 506 571 570 570 571 635 570 635 634 634 635 699 634 699 698 698 699 705 704 60 59 59 60 124 59 124 123 123 124 188 123 188 187 187 188 252 187 252 251 251 252 316 251 316 315 315 316 380 315 380 379 379 380 444 379 444 443 443 444 508 443 508 507 507 508 572 507 572 571 571 572 636 571 636 635 635 636 700 635 700 699 699 700 705 704 61 60 60 61 125 60 125 124 124 125 189 124 189 188 188 189 253 188 253 252 252 253 317 252 317 316 316 317 381 316 381 380 380 381 445 380 445 444 444 445 509 444 509 508 508 509 573 508 573 572 572 573 637 572 637 636 636 637 701 636 701 700 700 701 705 704 62 61 61 62 126 61 126 125 125 126 190 125 190 189 189 190 254 189 254 253 253 254 318 253 318 317 317 318 382 317 382 381 381 382 446 381 446 445 445 446 510 445 510 509 509 510 574 509 574 573 573 574 638 573 638 637 637 638 702 637 702 701 701 702 705 704 63 62 62 63 127 62 127 126 126 127 191 126 191 190 190 191 255 190 255 254 254 255 319 254 319 318 318 319 383 318 383 382 382 383 447 382 447 446 446 447 511 446 511 510 510 511 575 510 575 574 574 575 639 574 639 638 638 639 703 638 703 702 702 703 705 704 0 63 63 0 64 63 64 127 127 64 128 127 128 191 191 128 192 191 192 255 255 192 256 255 256 319 319 256 320 319 320 383 383 320 384 383 384 447 447 384 448 447 448 511 511 448 512 511 512 575 575 512 576 575 576 639 639 576 640 639 640 703 703 640 705 748 744 746 706 709 707 706 710 709 711 715 713 721 719 723 737 735 733 748 750 744 714 716 712 718 712 716 706 708 710 759 763 761 737 733 741 711 719 717 711 717 715 731 725 723 731 727 725 731 729 727 738 734 736 728 730 732 738 740 742 738 742 734 744 750 752 759 757 763 747 745 743 747 743 749 737 741 739 718 720 712 760 762 764 760 764 758 769 767 765 763 757 755 722 724 720 758 764 756 754 756 752 769 765 766 769 766 768 749 743 751 753 751 755 732 724 726 728 732 726 731 723 719 711 731 719 711 709 712 710 712 709 744 732 742 734 742 732 731 743 733 733 743 741 711 764 731 711 712 764 744 764 732 731 764 743 712 732 764 763 743 764 712 724 732 712 720 724 744 756 764 744 752 756 763 764 766 763 766 765 763 751 743 763 755 751 810 808 812 771 773 770 773 774 770 777 779 775 787 783 785 797 799 801 808 814 812 776 780 778 780 776 782 774 772 770 825 827 823 805 797 801 781 783 775 779 781 775 787 789 795 789 791 795 791 793 795 800 798 802 796 794 792 806 804 802 798 806 802 816 814 808 827 821 823 807 809 811 813 807 811 803 805 801 776 784 782 828 826 824 822 828 824 829 831 833 819 821 827 784 788 786 820 828 822 816 820 818 830 829 833 832 830 833 815 807 813 819 815 817 790 788 796 790 796 792 783 787 795 783 795 775 776 773 775 773 776 774 806 796 808 796 806 798 797 807 795 805 807 797 795 828 775 828 776 775 796 828 808 807 828 795 828 796 776 828 807 827 796 788 776 788 784 776 828 820 808 820 816 808 830 828 827 829 830 827 807 815 827 815 819 827 706 707 771 706 771 770 707 709 773 707 773 771 708 706 770 708 770 772 709 711 775 709 775 773 710 708 772 710 772 774 711 713 777 711 777 775 712 710 774 712 774 776 713 715 779 713 779 777 714 712 776 714 776 778 715 717 781 715 781 779 716 714 778 716 778 780 717 719 783 717 783 781 718 716 780 718 780 782 719 721 785 719 785 783 720 718 782 720 782 784 721 723 787 721 787 785 722 720 784 722 784 786 723 725 789 723 789 787 724 722 786 724 786 788 725 727 791 725 791 789 726 724 788 726 788 790 727 729 793 727 793 791 728 726 790 728 790 792 729 731 795 729 795 793 730 728 792 730 792 794 731 733 797 731 797 795 732 730 794 732 794 796 733 735 799 733 799 797 734 732 796 734 796 798 735 737 801 735 801 799 736 734 798 736 798 800 737 739 803 737 803 801 738 736 800 738 800 802 739 741 805 739 805 803 740 738 802 740 802 804 741 743 807 741 807 805 742 740 804 742 804 806 743 745 809 743 809 807 744 742 806 744 806 808 745 747 811 745 811 809 746 744 808 746 808 810 747 749 813 747 813 811 748 746 810 748 810 812 749 751 815 749 815 813 750 748 812 750 812 814 751 753 817 751 817 815 752 750 814 752 814 816 753 755 819 753 819 817 754 752 816 754 816 818 755 757 821 755 821 819 756 754 818 756 818 820 757 759 823 757 823 821 758 756 820 758 820 822 759 761 825 759 825 823 760 758 822 760 822 824 761 763 827 761 827 825 762 760 824 762 824 826 763 765 829 763 829 827 764 762 826 764 826 828 765 767 831 765 831 829 766 764 828 766 828 830 767 769 833 767 833 831 768 766 830 768 830 832 769 768 832 769 832 833</p></triangles>
</mesh></geometry></library_geometries>
<library_visual_scenes><visual_scene id="Scene"><node id="part-node"><instance_geometry url="#part"><bind_material><technique_common><instance_material symbol="surface" target="#metal"/></technique_common></bind_material></instance_geometry></node></visual_scene></library_visual_scenes>
<scene><instance_visual_scene url="#Scene"/></scene></COLLADA>
