0
SECTION
2
HEADER
9
$INSUNITS
70
4
0
ENDSEC
0
SECTION
2
ENTITIES
0
LINE
8
CUT
10
85.0
20
32.5
11
84.86549696282262
21
33.865632254112896
0
LINE
8
CUT
10
84.86549696282262
20
33.865632254112896
11
84.46715672757901
21
35.178784026555626
0
LINE
8
CUT
10
84.46715672757901
20
35.178784026555626
11
83.82028728611782
21
36.388991631137216
0
LINE
8
CUT
10
83.82028728611782
20
36.388991631137216
11
82.94974746830583
21
37.44974746830583
0
LINE
8
CUT
10
82.94974746830583
20
37.44974746830583
11
81.88899163113722
21
38.32028728611782
0
LINE
8
CUT
10
81.88899163113722
20
38.32028728611782
11
80.67878402655563
21
38.96715672757901
0
LINE
8
CUT
10
80.67878402655563
20
38.96715672757901
11
79.3656322541129
21
39.36549696282261
0
LINE
8
CUT
10
79.3656322541129
20
39.36549696282261
11
78.0
21
39.5
0
LINE
8
CUT
10
78.0
20
39.5
11
-88.0
21
39.5
0
LINE
8
CUT
10
-88.0
20
39.5
11
-89.3656322541129
21
39.36549696282261
0
LINE
8
CUT
10
-89.3656322541129
20
39.36549696282261
11
-90.67878402655563
21
38.96715672757901
0
LINE
8
CUT
10
-90.67878402655563
20
38.96715672757901
11
-91.88899163113722
21
38.32028728611782
0
LINE
8
CUT
10
-91.88899163113722
20
38.32028728611782
11
-92.94974746830583
21
37.44974746830583
0
LINE
8
CUT
10
-92.94974746830583
20
37.44974746830583
11
-93.82028728611782
21
36.388991631137216
0
LINE
8
CUT
10
-93.82028728611782
20
36.388991631137216
11
-94.46715672757901
21
35.17878402655563
0
LINE
8
CUT
10
-94.46715672757901
20
35.17878402655563
11
-94.86549696282262
21
33.865632254112896
0
LINE
8
CUT
10
-94.86549696282262
20
33.865632254112896
11
-95.0
21
32.5
0
LINE
8
CUT
10
-95.0
20
32.5
11
-95.0
21
-32.5
0
LINE
8
CUT
10
-95.0
20
-32.5
11
-94.86549696282262
21
-33.865632254112896
0
LINE
8
CUT
10
-94.86549696282262
20
-33.865632254112896
11
-94.46715672757901
21
-35.178784026555626
0
LINE
8
CUT
10
-94.46715672757901
20
-35.178784026555626
11
-93.82028728611782
21
-36.388991631137216
0
LINE
8
CUT
10
-93.82028728611782
20
-36.388991631137216
11
-92.94974746830583
21
-37.44974746830583
0
LINE
8
CUT
10
-92.94974746830583
20
-37.44974746830583
11
-91.88899163113722
21
-38.32028728611782
0
LINE
8
CUT
10
-91.88899163113722
20
-38.32028728611782
11
-90.67878402655563
21
-38.96715672757901
0
LINE
8
CUT
10
-90.67878402655563
20
-38.96715672757901
11
-89.3656322541129
21
-39.36549696282261
0
LINE
8
CUT
10
-89.3656322541129
20
-39.36549696282261
11
-88.0
21
-39.5
0
LINE
8
CUT
10
-88.0
20
-39.5
11
78.0
21
-39.5
0
LINE
8
CUT
10
78.0
20
-39.5
11
79.3656322541129
21
-39.36549696282261
0
LINE
8
CUT
10
79.3656322541129
20
-39.36549696282261
11
80.67878402655563
21
-38.96715672757901
0
LINE
8
CUT
10
80.67878402655563
20
-38.96715672757901
11
81.88899163113722
21
-38.32028728611782
0
LINE
8
CUT
10
81.88899163113722
20
-38.32028728611782
11
82.94974746830583
21
-37.44974746830583
0
LINE
8
CUT
10
82.94974746830583
20
-37.44974746830583
11
83.82028728611782
21
-36.388991631137216
0
LINE
8
CUT
10
83.82028728611782
20
-36.388991631137216
11
84.46715672757901
21
-35.178784026555626
0
LINE
8
CUT
10
84.46715672757901
20
-35.178784026555626
11
84.86549696282262
21
-33.8656322541129
0
LINE
8
CUT
10
84.86549696282262
20
-33.8656322541129
11
85.0
21
-32.5
0
LINE
8
CUT
10
85.0
20
-32.5
11
85.0
21
32.5
0
CIRCLE
8
CUT
10
0
20
-29.25
40
1.7
0
CIRCLE
8
CUT
10
0
20
29.25
40
1.7
0
ENDSEC
0
EOF
