0
SECTION
2
HEADER
9
$INSUNITS
70
4
0
ENDSEC
0
SECTION
2
ENTITIES
0
LINE
8
CUT
10
48.0
20
12.0
11
47.92314112161292
21
12.780361288064514
0
LINE
8
CUT
10
47.92314112161292
20
12.780361288064514
11
47.695518130045144
21
13.530733729460358
0
LINE
8
CUT
10
47.695518130045144
20
13.530733729460358
11
47.32587844921018
21
14.222280932078409
0
LINE
8
CUT
10
47.32587844921018
20
14.222280932078409
11
46.82842712474619
21
14.82842712474619
0
LINE
8
CUT
10
46.82842712474619
20
14.82842712474619
11
46.22228093207841
21
15.325878449210181
0
LINE
8
CUT
10
46.22228093207841
20
15.325878449210181
11
45.53073372946036
21
15.695518130045148
0
LINE
8
CUT
10
45.53073372946036
20
15.695518130045148
11
44.78036128806451
21
15.923141121612922
0
LINE
8
CUT
10
44.78036128806451
20
15.923141121612922
11
44.0
21
16.0
0
LINE
8
CUT
10
44.0
20
16.0
11
-44.0
21
16.0
0
LINE
8
CUT
10
-44.0
20
16.0
11
-44.78036128806451
21
15.923141121612922
0
LINE
8
CUT
10
-44.78036128806451
20
15.923141121612922
11
-45.53073372946036
21
15.695518130045148
0
LINE
8
CUT
10
-45.53073372946036
20
15.695518130045148
11
-46.22228093207841
21
15.32587844921018
0
LINE
8
CUT
10
-46.22228093207841
20
15.32587844921018
11
-46.82842712474619
21
14.82842712474619
0
LINE
8
CUT
10
-46.82842712474619
20
14.82842712474619
11
-47.32587844921018
21
14.222280932078409
0
LINE
8
CUT
10
-47.32587844921018
20
14.222280932078409
11
-47.695518130045144
21
13.53073372946036
0
LINE
8
CUT
10
-47.695518130045144
20
13.53073372946036
11
-47.92314112161292
21
12.780361288064512
0
LINE
8
CUT
10
-47.92314112161292
20
12.780361288064512
11
-48.0
21
12.0
0
LINE
8
CUT
10
-48.0
20
12.0
11
-48.0
21
-12.0
0
LINE
8
CUT
10
-48.0
20
-12.0
11
-47.92314112161292
21
-12.780361288064514
0
LINE
8
CUT
10
-47.92314112161292
20
-12.780361288064514
11
-47.695518130045144
21
-13.530733729460358
0
LINE
8
CUT
10
-47.695518130045144
20
-13.530733729460358
11
-47.32587844921018
21
-14.222280932078409
0
LINE
8
CUT
10
-47.32587844921018
20
-14.222280932078409
11
-46.82842712474619
21
-14.82842712474619
0
LINE
8
CUT
10
-46.82842712474619
20
-14.82842712474619
11
-46.222280932078405
21
-15.325878449210181
0
LINE
8
CUT
10
-46.222280932078405
20
-15.325878449210181
11
-45.53073372946036
21
-15.695518130045148
0
LINE
8
CUT
10
-45.53073372946036
20
-15.695518130045148
11
-44.78036128806451
21
-15.923141121612922
0
LINE
8
CUT
10
-44.78036128806451
20
-15.923141121612922
11
-44.0
21
-16.0
0
LINE
8
CUT
10
-44.0
20
-16.0
11
44.0
21
-16.0
0
LINE
8
CUT
10
44.0
20
-16.0
11
44.78036128806451
21
-15.923141121612922
0
LINE
8
CUT
10
44.78036128806451
20
-15.923141121612922
11
45.53073372946036
21
-15.695518130045146
0
LINE
8
CUT
10
45.53073372946036
20
-15.695518130045146
11
46.222280932078405
21
-15.325878449210181
0
LINE
8
CUT
10
46.222280932078405
20
-15.325878449210181
11
46.82842712474619
21
-14.828427124746192
0
LINE
8
CUT
10
46.82842712474619
20
-14.828427124746192
11
47.32587844921018
21
-14.222280932078409
0
LINE
8
CUT
10
47.32587844921018
20
-14.222280932078409
11
47.695518130045144
21
-13.530733729460358
0
LINE
8
CUT
10
47.695518130045144
20
-13.530733729460358
11
47.92314112161292
21
-12.780361288064515
0
LINE
8
CUT
10
47.92314112161292
20
-12.780361288064515
11
48.0
21
-12.000000000000002
0
LINE
8
CUT
10
48.0
20
-12.000000000000002
11
48.0
21
12.0
0
CIRCLE
8
CUT
10
-22.5
20
0
40
1.8
0
CIRCLE
8
CUT
10
22.5
20
0
40
1.8
0
ENDSEC
0
EOF
