0
SECTION
2
HEADER
9
$INSUNITS
70
4
0
ENDSEC
0
SECTION
2
ENTITIES
0
LINE
8
CUT
10
39.0
20
36.0
11
38.84628224322584
21
37.560722576129024
0
LINE
8
CUT
10
38.84628224322584
20
37.560722576129024
11
38.391036260090296
21
39.06146745892072
0
LINE
8
CUT
10
38.391036260090296
20
39.06146745892072
11
37.65175689842036
21
40.44456186415682
0
LINE
8
CUT
10
37.65175689842036
20
40.44456186415682
11
36.65685424949238
21
41.65685424949238
0
LINE
8
CUT
10
36.65685424949238
20
41.65685424949238
11
35.44456186415682
21
42.65175689842036
0
LINE
8
CUT
10
35.44456186415682
20
42.65175689842036
11
34.06146745892072
21
43.391036260090296
0
LINE
8
CUT
10
34.06146745892072
20
43.391036260090296
11
32.560722576129024
21
43.84628224322584
0
LINE
8
CUT
10
32.560722576129024
20
43.84628224322584
11
31.0
21
44.0
0
LINE
8
CUT
10
31.0
20
44.0
11
-31.0
21
44.0
0
LINE
8
CUT
10
-31.0
20
44.0
11
-32.560722576129024
21
43.84628224322584
0
LINE
8
CUT
10
-32.560722576129024
20
43.84628224322584
11
-34.06146745892072
21
43.391036260090296
0
LINE
8
CUT
10
-34.06146745892072
20
43.391036260090296
11
-35.44456186415682
21
42.65175689842036
0
LINE
8
CUT
10
-35.44456186415682
20
42.65175689842036
11
-36.65685424949238
21
41.65685424949238
0
LINE
8
CUT
10
-36.65685424949238
20
41.65685424949238
11
-37.65175689842036
21
40.44456186415682
0
LINE
8
CUT
10
-37.65175689842036
20
40.44456186415682
11
-38.391036260090296
21
39.06146745892072
0
LINE
8
CUT
10
-38.391036260090296
20
39.06146745892072
11
-38.84628224322584
21
37.560722576129024
0
LINE
8
CUT
10
-38.84628224322584
20
37.560722576129024
11
-39.0
21
36.0
0
LINE
8
CUT
10
-39.0
20
36.0
11
-39.0
21
-36.0
0
LINE
8
CUT
10
-39.0
20
-36.0
11
-38.84628224322584
21
-37.560722576129024
0
LINE
8
CUT
10
-38.84628224322584
20
-37.560722576129024
11
-38.391036260090296
21
-39.06146745892072
0
LINE
8
CUT
10
-38.391036260090296
20
-39.06146745892072
11
-37.65175689842036
21
-40.44456186415682
0
LINE
8
CUT
10
-37.65175689842036
20
-40.44456186415682
11
-36.65685424949238
21
-41.65685424949238
0
LINE
8
CUT
10
-36.65685424949238
20
-41.65685424949238
11
-35.44456186415682
21
-42.65175689842036
0
LINE
8
CUT
10
-35.44456186415682
20
-42.65175689842036
11
-34.06146745892072
21
-43.391036260090296
0
LINE
8
CUT
10
-34.06146745892072
20
-43.391036260090296
11
-32.56072257612903
21
-43.84628224322584
0
LINE
8
CUT
10
-32.56072257612903
20
-43.84628224322584
11
-31.0
21
-44.0
0
LINE
8
CUT
10
-31.0
20
-44.0
11
31.0
21
-44.0
0
LINE
8
CUT
10
31.0
20
-44.0
11
32.560722576129024
21
-43.84628224322584
0
LINE
8
CUT
10
32.560722576129024
20
-43.84628224322584
11
34.06146745892072
21
-43.391036260090296
0
LINE
8
CUT
10
34.06146745892072
20
-43.391036260090296
11
35.44456186415682
21
-42.651756898420366
0
LINE
8
CUT
10
35.44456186415682
20
-42.651756898420366
11
36.656854249492376
21
-41.65685424949238
0
LINE
8
CUT
10
36.656854249492376
20
-41.65685424949238
11
37.65175689842036
21
-40.44456186415682
0
LINE
8
CUT
10
37.65175689842036
20
-40.44456186415682
11
38.391036260090296
21
-39.06146745892072
0
LINE
8
CUT
10
38.391036260090296
20
-39.06146745892072
11
38.84628224322584
21
-37.56072257612903
0
LINE
8
CUT
10
38.84628224322584
20
-37.56072257612903
11
39.0
21
-36.0
0
LINE
8
CUT
10
39.0
20
-36.0
11
39.0
21
36.0
0
CIRCLE
8
CUT
10
-24.0
20
-18.0
40
1.7
0
CIRCLE
8
CUT
10
-24.0
20
18.0
40
1.7
0
CIRCLE
8
CUT
10
24.0
20
-18.0
40
1.7
0
CIRCLE
8
CUT
10
24.0
20
18.0
40
1.7
0
ENDSEC
0
EOF
